<svg xmlns="http://www.w3.org/2000/svg" viewBox="0 0 500 500"><g id="freepik--background-complete--inject-145"><polygon points="164.42 40.62 164.42 114.01 59.01 114.01 55.21 41.13 164.42 40.62" style="fill:#e0e0e0"></polygon><rect x="71.56" y="24.79" width="72.72" height="105.41" transform="translate(30.42 185.41) rotate(-90)" style="fill:#fff"></rect><path d="M161.12,114.35H54.71V40.63H161.12Zm-105.41-1H160.12V41.63H55.71Z" style="fill:#e0e0e0"></path><rect x="66.63" y="50.17" width="82.57" height="54.65" style="fill:#fff"></rect><path d="M149.2,50.17h-1.58l-4.53,0-17,.07-59.44.12.24-.24c0,16.69,0,35.2,0,54.64h0l-.26-.26,82.57,0-.2.21c0-16.63.08-30.27.1-39.77,0-4.74.05-8.45.06-11,0-1.26,0-2.22,0-2.89s0-1,0-1,0,.31,0,1,0,1.61,0,2.85c0,2.53,0,6.22.05,11,0,9.52.07,23.2.11,39.89V105h-.21l-82.57,0h-.26v-.26h0c0-19.44,0-37.95,0-54.64v-.24h.24l59.6.12,17,.06,4.49,0h1.14Z" style="fill:#e0e0e0"></path><path d="M55.21,40.93A8.12,8.12,0,0,1,57,42.1c1.08.78,2.55,1.88,4.14,3.15s3,2.47,4,3.37a8.18,8.18,0,0,1,1.51,1.55c-.1.11-2.63-2-5.8-4.51A58.49,58.49,0,0,1,55.21,40.93Z" style="fill:#e0e0e0"></path><path d="M160.62,41.13a50.22,50.22,0,0,1-5.55,4.72,51,51,0,0,1-5.87,4.32,50.77,50.77,0,0,1,5.55-4.73A51.6,51.6,0,0,1,160.62,41.13Z" style="fill:#e0e0e0"></path><path d="M160.54,113.86l-11.76-9.52" style="fill:#fff"></path><path d="M148.78,104.34a54.92,54.92,0,0,1,6,4.56,55.8,55.8,0,0,1,5.72,5,53.42,53.42,0,0,1-6-4.56A55.8,55.8,0,0,1,148.78,104.34Z" style="fill:#e0e0e0"></path><path d="M55.21,113.85a50.93,50.93,0,0,1,5.49-4.67,48.35,48.35,0,0,1,5.81-4.26A50.93,50.93,0,0,1,61,109.59,48.35,48.35,0,0,1,55.21,113.85Z" style="fill:#e0e0e0"></path><rect x="100.22" y="50.36" width="18.3" height="51.96" transform="translate(33.03 185.72) rotate(-90)" style="fill:#e0e0e0"></rect><rect x="214.7" y="107.91" width="57.27" height="83.02" style="fill:#e0e0e0"></rect><rect x="211.83" y="107.91" width="57.27" height="83.02" style="fill:#f5f5f5"></rect><rect x="218.94" y="116.9" width="43.04" height="65.03" style="fill:#fff"></rect><path d="M262,181.93v-.32c0-.21,0-.52,0-.92,0-.82,0-2,0-3.57,0-3.11,0-7.65,0-13.39,0-11.47,0-27.71-.07-46.83l.14.14h-43l.16-.15c0,24.53,0,47.15,0,65l-.13-.12,31.33.06,8.66,0,2.27,0H262l-.75,0H259l-8.63,0-31.41.07h-.12v-.13c0-17.88,0-40.5,0-65v-.16H219l43,0h.15v.14c0,19.16-.06,35.43-.07,46.92,0,5.73,0,10.26,0,13.37,0,1.54,0,2.72,0,3.53,0,.4,0,.7,0,.91S262,181.93,262,181.93Z" style="fill:#e0e0e0"></path><path d="M269.26,107.91a10.24,10.24,0,0,1-1,1.48c-.66.89-1.61,2.1-2.69,3.41s-2.08,2.47-2.83,3.29a10.88,10.88,0,0,1-1.26,1.29,10.64,10.64,0,0,1,1.1-1.43l2.75-3.35,2.76-3.35A11.09,11.09,0,0,1,269.26,107.91Z" style="fill:#e0e0e0"></path><path d="M262.2,181.72a53.56,53.56,0,0,0,7.51,9.39" style="fill:#fff"></path><path d="M269.71,191.11a8.07,8.07,0,0,1-1.31-1.19,40.09,40.09,0,0,1-2.83-3.19,41.13,41.13,0,0,1-2.49-3.47,9,9,0,0,1-.88-1.54,11.58,11.58,0,0,1,1.06,1.42c.63.88,1.52,2.1,2.55,3.39s2,2.43,2.75,3.24A11.92,11.92,0,0,1,269.71,191.11Z" style="fill:#e0e0e0"></path><path d="M211.82,190.86l7.5-9.26" style="fill:#fff"></path><path d="M219.32,181.6a56,56,0,0,1-3.63,4.73,58.44,58.44,0,0,1-3.87,4.53,56,56,0,0,1,3.63-4.73A58.44,58.44,0,0,1,219.32,181.6Z" style="fill:#e0e0e0"></path><path d="M211.83,107.91a50.66,50.66,0,0,1,3.64,4.35,54,54,0,0,1,3.4,4.55,52.73,52.73,0,0,1-3.65-4.36A50.84,50.84,0,0,1,211.83,107.91Z" style="fill:#e0e0e0"></path><rect x="234.16" y="130.1" width="14.41" height="40.92" style="fill:#e0e0e0"></rect><rect x="161.9" y="266.19" width="102.83" height="194.39" style="fill:#e0e0e0"></rect><rect x="131.38" y="266.19" width="102.83" height="194.39" style="fill:#f5f5f5"></rect><path d="M226.65,306.2H138.38V275.38h88.27Zm-87.19-1.09h86.1V276.47h-86.1Z" style="fill:#e0e0e0"></path><path d="M166.36,275.93h33.5a0,0,0,0,1,0,0v1.19a4.95,4.95,0,0,1-4.95,4.95h-23.6a4.95,4.95,0,0,1-4.95-4.95v-1.19A0,0,0,0,1,166.36,275.93Z" style="fill:#ebebeb"></path><path d="M226.65,345.34H138.38V314.52h88.27Zm-87.19-1.09h86.1V315.61h-86.1Z" style="fill:#e0e0e0"></path><path d="M166.36,315.07h33.5a0,0,0,0,1,0,0v1.19a4.95,4.95,0,0,1-4.95,4.95h-23.6a4.95,4.95,0,0,1-4.95-4.95v-1.19A0,0,0,0,1,166.36,315.07Z" style="fill:#ebebeb"></path><path d="M226.65,384.48H138.38V353.67h88.27Zm-87.19-1.08h86.1V354.75h-86.1Z" style="fill:#e0e0e0"></path><path d="M166.36,354.21h33.5a0,0,0,0,1,0,0v1.19a4.95,4.95,0,0,1-4.95,4.95h-23.6a4.95,4.95,0,0,1-4.95-4.95v-1.19A0,0,0,0,1,166.36,354.21Z" style="fill:#ebebeb"></path><path d="M226.65,423.62H138.38V392.81h88.27Zm-87.19-1.08h86.1V393.89h-86.1Z" style="fill:#e0e0e0"></path><path d="M166.36,393.35h33.5a0,0,0,0,1,0,0v1.19a4.95,4.95,0,0,1-4.95,4.95h-23.6a4.95,4.95,0,0,1-4.95-4.95v-1.19A0,0,0,0,1,166.36,393.35Z" style="fill:#ebebeb"></path><rect x="126.82" y="258.91" width="111.7" height="9.68" style="fill:#ebebeb"></rect><rect x="238.52" y="258.91" width="33.59" height="9.68" style="fill:#e0e0e0"></rect><rect x="131.38" y="460.57" width="5.4" height="9.93" style="fill:#e0e0e0"></rect><rect x="164.77" y="460.57" width="5.4" height="9.93" style="fill:#e0e0e0"></rect><rect x="225.76" y="460.57" width="5.4" height="9.93" style="fill:#e0e0e0"></rect><rect x="256.26" y="460.57" width="5.4" height="9.93" style="fill:#e0e0e0"></rect><polygon points="226.59 233.06 237 259.69 230.53 259.66 225.34 243.29 226.59 233.06" style="fill:#e0e0e0"></polygon><polygon points="191.05 208.46 187.47 259.48 224.41 260.25 228.57 208.46 191.05 208.46" style="fill:#ebebeb"></polygon><polygon points="194.74 212.56 191.76 255.03 219.23 256.32 223.06 212.31 194.74 212.56" style="fill:#fafafa"></polygon><polygon points="200.77 218.57 198.54 248.42 213.69 248.42 216.36 218.57 200.77 218.57" style="fill:#e0e0e0"></polygon><rect x="322.42" y="34.23" width="135.62" height="243.63" style="fill:#ebebeb"></rect><rect x="327.84" y="41.3" width="123.39" height="229.31" style="fill:#fafafa"></rect><polygon points="451.22 44 327.84 200.95 327.84 41.3 451.22 41.3 451.22 44" style="fill:#f5f5f5"></polygon><rect x="327.84" y="107.26" width="126.06" height="2.44" style="fill:#ebebeb"></rect><rect x="327.84" y="161.87" width="126.06" height="2.44" style="fill:#ebebeb"></rect><rect x="327.84" y="216.48" width="126.06" height="2.44" style="fill:#ebebeb"></rect><rect x="305.22" y="189.68" width="168.63" height="6.23" transform="translate(196.73 582.33) rotate(-90)" style="fill:#ebebeb"></rect><rect x="351.6" y="41.3" width="2.82" height="67.19" style="fill:#ebebeb"></rect><rect x="375.95" y="41.3" width="2.82" height="67.19" style="fill:#ebebeb"></rect><rect x="400.31" y="41.3" width="2.82" height="67.19" style="fill:#ebebeb"></rect><rect x="424.67" y="41.3" width="2.82" height="67.19" style="fill:#ebebeb"></rect><rect x="316.68" y="30.1" width="5.74" height="249.27" style="fill:#f5f5f5"></rect><polygon points="463.78 280.06 458.04 277.87 458.04 30.1 463.78 30.1 463.78 280.06" style="fill:#e0e0e0"></polygon><rect x="316.68" y="27.59" width="147.09" height="6.65" style="fill:#e0e0e0"></rect><rect x="312.61" y="280.88" width="155.05" height="6.19" style="fill:#e0e0e0"></rect><polygon points="458.04 277.87 467.66 280.88 312.61 280.88 322.42 277.87 458.04 277.87" style="fill:#ebebeb"></polygon><path d="M51.33,298.06c-7.12.15-11.43,8.28-11.79,15.4s1.57,14.39-.18,21.29c-2.22,8.78-10,15.37-12,24.19-2.38,10.4,3.77,20.77,4.56,31.42.38,5.17-.51,10.47.7,15.52a19.72,19.72,0,0,0,19.32,14.64A19.71,19.71,0,0,0,70,404.42c1.28-8.06-2.65-16.37-.93-24.35,1.28-5.9,5.55-11.06,5.63-17.09.09-7.18-5.76-13.1-7.13-20.15s1.87-14.15,2.06-21.33c.33-12.88-5.48-22.69-18.34-23.44" style="fill:#ebebeb"></path><path d="M54.86,331.68a8.31,8.31,0,0,1,0,1.15c0,.8-.12,1.89-.21,3.26-.22,2.9-.52,7-.89,12-.76,10.14-1.8,24.15-2.84,39.63S49,417.25,48.36,427.4c-.31,5-.56,9.12-.74,12-.1,1.37-.17,2.46-.23,3.27a8.6,8.6,0,0,1-.12,1.14,6,6,0,0,1,0-1.15c0-.8.06-1.9.1-3.27.13-2.91.31-7,.53-12,.49-10.17,1.27-24.2,2.32-39.69s2.16-29.49,3-39.62c.46-5,.84-9.1,1.1-12,.15-1.37.26-2.45.34-3.26A8.14,8.14,0,0,1,54.86,331.68Z" style="fill:#e0e0e0"></path><path d="M42.29,424.87H57.4A15.17,15.17,0,0,1,72.57,440v30.28a0,0,0,0,1,0,0H27.12a0,0,0,0,1,0,0V440A15.17,15.17,0,0,1,42.29,424.87Z" transform="translate(99.69 895.19) rotate(180)" style="fill:#e0e0e0"></path><path d="M27.12,436.05a4,4,0,0,1,.72.52l2,1.57,7,5.73-.25,0,13.11-8,0,0,.14-.08.14.09,12.2,8h-.25l7.67-5.72,2.17-1.58a5,5,0,0,1,.79-.51,5.23,5.23,0,0,1-.71.62l-2.09,1.67-7.56,5.87-.13.1-.13-.09-12.25-8H50l-13.16,7.94-.13.08-.12-.1-6.88-5.87-1.9-1.66A6.08,6.08,0,0,1,27.12,436.05Z" style="fill:#fff"></path><path d="M27.12,431.5a4,4,0,0,1,.72.52l2,1.57,7,5.73h-.25l13.11-8h0l.14-.09.14.09,12.2,8h-.25l7.67-5.72L71.78,432a4.73,4.73,0,0,1,.79-.52,4.16,4.16,0,0,1-.71.63l-2.09,1.66-7.56,5.88-.13.09-.13-.08-12.25-8H50l0,0-13.16,7.94-.13.08-.12-.1-6.88-5.88-1.9-1.66A5,5,0,0,1,27.12,431.5Z" style="fill:#fff"></path><path d="M27.12,440.67a4,4,0,0,1,.72.52l2,1.57,7,5.73-.25,0,13.11-8,0,0,.14-.08.14.09,12.2,8h-.25l7.67-5.72,2.17-1.57a4.73,4.73,0,0,1,.79-.52,4.48,4.48,0,0,1-.71.62L69.77,443l-7.56,5.87-.13.1-.13-.09L49.7,440.89H50l0,0-13.16,7.93-.13.08-.12-.1L29.66,443l-1.9-1.66A6.08,6.08,0,0,1,27.12,440.67Z" style="fill:#fff"></path></g><g id="freepik--Floor--inject-145"><path d="M472.87,469.05c0,.15-96.85.26-216.29.26s-216.31-.11-216.31-.26,96.82-.26,216.31-.26S472.87,468.91,472.87,469.05Z" style="fill:#263238"></path></g><g id="freepik--character-2--inject-145"><path d="M274.18,67.63a53.29,53.29,0,0,1-6.29,4,53.6,53.6,0,0,1-6.55,3.53,52.79,52.79,0,0,1,6.29-4A54.45,54.45,0,0,1,274.18,67.63Z" style="fill:#263238"></path><path d="M258.21,50.86a94.78,94.78,0,0,1-4.74,8.93,97.61,97.61,0,0,1-5.19,8.68c-.12-.07,2-4.07,4.74-8.94A97.51,97.51,0,0,1,258.21,50.86Z" style="fill:#263238"></path><path d="M237.68,45.65a91.65,91.65,0,0,1,0,9.6,90.9,90.9,0,0,1-.56,9.58,85.51,85.51,0,0,1,0-9.6A85.1,85.1,0,0,1,237.68,45.65Z" style="fill:#263238"></path><path d="M221.45,66.42a36.1,36.1,0,0,1-4.72-3.86,36.17,36.17,0,0,1-4.38-4.24,35.12,35.12,0,0,1,4.72,3.86A35.28,35.28,0,0,1,221.45,66.42Z" style="fill:#263238"></path><path d="M210.65,77.22a5.66,5.66,0,0,1-1.87-.33,21.4,21.4,0,0,1-4.24-1.71,21,21,0,0,1-3.77-2.58,5.84,5.84,0,0,1-1.31-1.38c.11-.12,2.22,1.85,5.33,3.5S210.69,77.06,210.65,77.22Z" style="fill:#263238"></path><path d="M403.5,278.9l7.38,7.43s3.18,8.18,4.37,10.42c2.46,4.61,2.87,4.4,3.36,4,1.31-1-4-8.28-2-7.38s5.48,9.64,6.8,8.53c1.73-1.46-4-9-4.41-9.63s.52-1.33.88-.7c.52.9,6.21,10.23,7.92,8.82,1-.79-.61-2.36-.61-2.36s-6-8.34-5.14-9,4.51,4.12,5.64,5.82,2.36,1.83,2.69.72c.23-.75-3.09-6-4.24-7.69s-4.38-6.13-1-5.22,6.34.33,7-.38a1.09,1.09,0,0,0-1.12-1.74,13.05,13.05,0,0,1-3.53-.25,8.49,8.49,0,0,1-2.68-.95c-1-.55-1.76-1.05-2.43-1.49l-11.11-11.29" style="fill:#936754"></path><path d="M326.93,110.29c-5.38,2-10.16,10.66-10.36,16.88-.11,3.63.49,7.84-2.13,10.34-2.3,2.2-6,1.9-8.9,3.17a8.84,8.84,0,0,0-5.15,8.36c.11,1.9.84,3.79.49,5.67-.8,4.22-6.22,5.59-8.86,9-2.42,3.11-2.13,7.74-.11,11.11s5.48,5.66,9.07,7.28a38.64,38.64,0,0,0,17.77,3.37c4.35-.22,9-1.35,11.9-4.57,3.75-4.11,3.75-10.29,3.68-15.86a310.67,310.67,0,0,1,3.74-51.87" style="fill:#263238"></path><path d="M251.32,100.87l-6.52-8.2s-2.26-8.48-3.19-10.84c-1.93-4.85-2.37-4.69-2.9-4.37-1.41.87,3.07,8.67,1.14,7.55s-4.38-10.18-5.82-9.22c-1.88,1.25,3,9.34,3.32,10.06s-.66,1.25-.95.59c-.42-1-5-10.85-6.9-9.63-1,.67.35,2.41.35,2.41s5,8.94,4.11,9.48-4-4.6-5-6.41-2.14-2.08-2.59-1c-.31.72,2.4,6.34,3.36,8.11s3.68,6.57.41,5.29-6.26-1-7-.39a1.09,1.09,0,0,0,.92,1.85,13,13,0,0,1,3.48.64A8.44,8.44,0,0,1,230.12,98c.9.65,1.64,1.24,2.25,1.75l9.79,12.44" style="fill:#936754"></path><path d="M415.4,262c-2.07-5.21-46-80.25-46-80.25-1.32-3.95-25.45-16.48-25.45-16.48s-40.81-18.13-45.2-23.87-25.89-32.06-30.28-34.69A22.94,22.94,0,0,0,259,103.8L248.36,94,234.79,105.1c1.32.88,7,11.89,7,11.89s1.14,7.09,4.22,11.91,50.38,50.33,50.38,50.33-1.62,39.78-.34,48.2c1.89,12.37,10.66,17.38,10.66,17.38.64,1.41,45.72-2.15,45.72-2.15s8.24-.94,8.24-8.57l.6-9c5.09,10.1,20.69,40.87,23.52,44.48,3.4,4.33,15.11,8.51,15.11,8.51l7.17,4.91,11.69-8.88A79,79,0,0,0,415.4,262Z" style="fill:#1A3D8F"></path><path d="M308.56,207.59c-1,1-3.13.52-4.69-1.08s-2-3.7-.95-4.71,3.13-.52,4.68,1.08S309.58,206.59,308.56,207.59Z" style="fill:#fafafa"></path><path d="M317.71,189.6c-1.34-.53-1.69-2.8-.79-5.07s2.71-3.67,4.05-3.14,1.69,2.79.79,5.06S319.05,190.13,317.71,189.6Z" style="fill:#fafafa"></path><path d="M309.43,170.23c-1.17.84-3,.24-4.17-1.34s-1.12-3.53.05-4.38,3-.24,4.17,1.34S310.6,169.38,309.43,170.23Z" style="fill:#fafafa"></path><path d="M290.73,151.59a3.17,3.17,0,1,1-3.65-1.78A2.88,2.88,0,0,1,290.73,151.59Z" style="fill:#fafafa"></path><path d="M283.78,135.64a3.24,3.24,0,1,1,2.75-3A2.93,2.93,0,0,1,283.78,135.64Z" style="fill:#fafafa"></path><path d="M266.94,137.41c-.22,1.42-2.18,2.3-4.37,2s-3.79-1.76-3.57-3.19,2.17-2.3,4.36-2S267.16,136,266.94,137.41Z" style="fill:#fafafa"></path><path d="M259.63,115.66a2.56,2.56,0,1,1,2.91-2.22A2.59,2.59,0,0,1,259.63,115.66Z" style="fill:#fafafa"></path><path d="M246,111.52a2.7,2.7,0,1,1,.95-3.63A2.66,2.66,0,0,1,246,111.52Z" style="fill:#fafafa"></path><path d="M324.7,161.91a2.43,2.43,0,1,1-.69-3.48A2.51,2.51,0,0,1,324.7,161.91Z" style="fill:#fafafa"></path><path d="M342.52,204.34a3,3,0,1,1,.63-3.91A2.81,2.81,0,0,1,342.52,204.34Z" style="fill:#fafafa"></path><path d="M353.71,216.82c-.9,1.12-2.85,1.06-4.36-.14s-2-3.09-1.1-4.22,2.84-1.06,4.35.15S354.61,215.7,353.71,216.82Z" style="fill:#fafafa"></path><path d="M319.34,240.65a2.89,2.89,0,1,1,2.27-3.14A2.75,2.75,0,0,1,319.34,240.65Z" style="fill:#fafafa"></path><path d="M327.2,221.94c-1,1-3.26.42-5-1.33s-2.34-4-1.33-5,3.26-.42,5,1.33S328.21,220.93,327.2,221.94Z" style="fill:#fafafa"></path><path d="M305,233.05c-1.44,0-2.67-1.68-2.76-3.87s1-4,2.45-4.06,2.67,1.67,2.75,3.86S306.38,233,305,233.05Z" style="fill:#fafafa"></path><path d="M351,239.72c-1.16.86-3.24,0-4.67-1.91s-1.64-4.15-.48-5,3.24,0,4.66,1.91S352.13,238.86,351,239.72Z" style="fill:#fafafa"></path><path d="M371.92,220.69c-.92,1.1-2.94.93-4.52-.38s-2.11-3.27-1.19-4.38,2.94-.94,4.52.38S372.84,219.58,371.92,220.69Z" style="fill:#fafafa"></path><path d="M382.78,222c-1.4-.35-2.12-2.27-1.61-4.29s2.05-3.38,3.44-3,2.12,2.27,1.61,4.29S384.17,222.31,382.78,222Z" style="fill:#fafafa"></path><path d="M395.07,260.64c-1.34-.52-1.64-2.94-.68-5.39s2.82-4,4.16-3.5,1.65,2.94.69,5.4S396.41,261.16,395.07,260.64Z" style="fill:#fafafa"></path><path d="M411.94,273a2.92,2.92,0,0,1-1.87.79,3.37,3.37,0,0,1-2-.44,3.42,3.42,0,0,1-1.35-1.47,2.81,2.81,0,0,1-.24-2,2.08,2.08,0,0,1,1.51-1.44,3.77,3.77,0,0,1,4.4,2.55A2.09,2.09,0,0,1,411.94,273Z" style="fill:#fafafa"></path><path d="M364.7,189.21c1.37-.44,3.16,1.34,4,4s.39,5.12-1,5.55-3.15-1.35-4-4S363.33,189.64,364.7,189.21Z" style="fill:#fafafa"></path><path d="M405.38,277.91a13.68,13.68,0,0,0,4.08,3.37" style="fill:#455a64"></path><path d="M409.46,281.28a4.75,4.75,0,0,1-2.37-1.28,4.85,4.85,0,0,1-1.71-2.09c.12-.1.93.77,2,1.68S409.53,281.15,409.46,281.28Z" style="fill:#263238"></path><path d="M412.73,278.6c-.09.11-1-.43-1.85-1.28s-1.49-1.68-1.38-1.78.85.56,1.74,1.4S412.82,278.49,412.73,278.6Z" style="fill:#263238"></path><path d="M415.88,276.31c-.11.09-.77-.48-1.4-1.35s-1-1.67-.85-1.74.65.59,1.27,1.44S416,276.21,415.88,276.31Z" style="fill:#263238"></path><path d="M360.42,203.83a19.74,19.74,0,0,1,.49,3.34c.22,2.07.44,5,.54,8.12s.07,6.06,0,8.14a19.62,19.62,0,0,1-.28,3.37,26,26,0,0,1-.09-3.37c0-2.08,0-5-.14-8.12s-.26-6-.39-8.11A25.69,25.69,0,0,1,360.42,203.83Z" style="fill:#263238"></path><path d="M330.74,244.68a3.26,3.26,0,0,1-1.35-.69,9.89,9.89,0,0,1-3.91-6.08,3.26,3.26,0,0,1-.07-1.51A18.75,18.75,0,0,0,327.3,241,19,19,0,0,0,330.74,244.68Z" style="fill:#263238"></path><path d="M335.62,238.07a6,6,0,0,1,0,3.12,6.07,6.07,0,0,1-1.07,2.93,21.08,21.08,0,0,1,.55-3A21,21,0,0,1,335.62,238.07Z" style="fill:#263238"></path><path d="M241.89,111.34a22.71,22.71,0,0,1-2.82-3.83,22.24,22.24,0,0,1-2.4-4.11,21.47,21.47,0,0,1,2.83,3.83A21.82,21.82,0,0,1,241.89,111.34Z" style="fill:#263238"></path><path d="M245.87,107.15a18.5,18.5,0,0,1-2.81-3.29,18.14,18.14,0,0,1-2.4-3.61,18.34,18.34,0,0,1,2.81,3.3A17.72,17.72,0,0,1,245.87,107.15Z" style="fill:#263238"></path><path d="M250.26,101.5a11.27,11.27,0,0,1-2.69-2.08A11.46,11.46,0,0,1,245.24,97,11.23,11.23,0,0,1,247.92,99,11.37,11.37,0,0,1,250.26,101.5Z" style="fill:#263238"></path><path d="M323,462.84l-.21-11.63,21.79-.53.49,17-1.35.12c-6,.48-30.56,2-34.61.91C304.56,467.47,323,462.84,323,462.84Z" style="fill:#1A3D8F"></path><g style="opacity:0.4"><path d="M337.14,467.71A7.54,7.54,0,0,1,339.8,463a7.36,7.36,0,0,1,5.06-1.71l.15,6.09Z"></path></g><path d="M314,465.43s-6.45,2-5.61,3.08,25.71.42,36.66-.82l-.05-.48-29,1S315.26,465.45,314,465.43Z" style="opacity:0.4"></path><path d="M345.33,467.18a1.37,1.37,0,0,1-.37.05l-1.07.1-4,.27c-3.34.2-8,.42-13.07.55s-9.73.16-13.08.12l-4-.06-1.08,0-.38,0,.38,0h1.08l4,0c3.35,0,8-.07,13.08-.2s9.72-.32,13.06-.48l4-.19,1.08,0Z" style="fill:#263238"></path><path d="M316,468.52a5.76,5.76,0,0,0-2.18-3.35,2.88,2.88,0,0,1,1.61,1.34A3,3,0,0,1,316,468.52Z" style="fill:#263238"></path><path d="M322.34,465.1c-.06,0-.37-.33-.7-.82s-.55-.93-.49-1,.37.33.7.82S322.4,465.06,322.34,465.1Z" style="fill:#263238"></path><path d="M324.08,464.12c0,.06-.39-.16-.78-.49s-.65-.64-.61-.7.4.17.78.5S324.13,464.07,324.08,464.12Z" style="fill:#263238"></path><path d="M325.15,462a2.65,2.65,0,0,1-1.14.17,2.68,2.68,0,0,1-1.14-.09A2.62,2.62,0,0,1,324,462,2.41,2.41,0,0,1,325.15,462Z" style="fill:#263238"></path><path d="M325.49,460.58a2.21,2.21,0,0,1-1.26.4,2.37,2.37,0,0,1-1.31-.14,6.4,6.4,0,0,1,1.29-.12A7.12,7.12,0,0,1,325.49,460.58Z" style="fill:#263238"></path><path d="M321.56,463.22a3.93,3.93,0,0,1-1.4,0,8,8,0,0,1-1.5-.29,3.53,3.53,0,0,1-.86-.33.72.72,0,0,1-.36-.42.54.54,0,0,1,.2-.57,2.59,2.59,0,0,1,3.67,1.59,1,1,0,0,1,.05.38,4,4,0,0,0-.67-1.18,2.59,2.59,0,0,0-1.22-.74,2.13,2.13,0,0,0-1.66.15c-.22.17-.13.43.12.57a3.93,3.93,0,0,0,.8.32,10.2,10.2,0,0,0,1.45.34C321,463.19,321.56,463.17,321.56,463.22Z" style="fill:#263238"></path><path d="M321.2,463.3a1.38,1.38,0,0,1-.19-1,2.36,2.36,0,0,1,.36-1,1.41,1.41,0,0,1,1.14-.74.56.56,0,0,1,.45.64,1.52,1.52,0,0,1-.22.63,4.47,4.47,0,0,1-.64.86c-.43.44-.77.62-.79.59s.28-.26.65-.71a4.75,4.75,0,0,0,.57-.86c.18-.3.3-.83,0-.89s-.71.34-.91.62a2.44,2.44,0,0,0-.38.92A4.39,4.39,0,0,0,321.2,463.3Z" style="fill:#263238"></path><path d="M344.74,461.23s-.63,0-1.61.1a6.86,6.86,0,0,0-5.59,4.69,15.27,15.27,0,0,0-.37,1.57,1.19,1.19,0,0,1,0-.44,6.58,6.58,0,0,1,.21-1.18,6.72,6.72,0,0,1,2.13-3.31,6.61,6.61,0,0,1,3.62-1.51,5.24,5.24,0,0,1,1.2,0A1.57,1.57,0,0,1,344.74,461.23Z" style="fill:#263238"></path><path d="M342.25,452.22a35.76,35.76,0,0,1,.3,4.47,37.48,37.48,0,0,1,0,4.48,37.73,37.73,0,0,1-.3-4.47A40.28,40.28,0,0,1,342.25,452.22Z" style="fill:#263238"></path><path d="M334.34,465.66a12.17,12.17,0,0,1-3.17.4,12.47,12.47,0,0,1-3.2-.18c0-.08,1.43,0,3.19-.09S334.33,465.58,334.34,465.66Z" style="fill:#263238"></path><path d="M338.61,465.55c.05.05-.11.3-.25.63s-.2.62-.28.62-.12-.34,0-.72S338.56,465.49,338.61,465.55Z" style="fill:#263238"></path><path d="M340.17,463.5c.05.05-.08.28-.3.52s-.44.38-.5.33.09-.28.31-.51S340.12,463.45,340.17,463.5Z" style="fill:#263238"></path><path d="M342.45,462.53c0,.07-.3.08-.62.2s-.54.3-.6.25.11-.36.51-.5S342.47,462.46,342.45,462.53Z" style="fill:#263238"></path><path d="M344.08,462.06c0,.06-.1.18-.28.25s-.34.08-.37,0,.09-.19.27-.26S344.05,462,344.08,462.06Z" style="fill:#263238"></path><path d="M374.57,462.11l-1.71-11.51,21.54-3.34,2.68,16.81-1.32.29c-5.89,1.25-30,6-34.2,5.37C356.92,469.07,374.57,462.11,374.57,462.11Z" style="fill:#1A3D8F"></path><g style="opacity:0.4"><path d="M389.25,465.11a7.56,7.56,0,0,1,2-5,7.39,7.39,0,0,1,4.79-2.35l.94,6Z"></path></g><path d="M366,465.83s-6.13,2.85-5.17,3.78,25.56-2.9,36.25-5.54l-.11-.48-28.64,4.72S367.26,465.69,366,465.83Z" style="opacity:0.4"></path><path d="M397.31,463.52a1.4,1.4,0,0,1-.37.1l-1.05.23-3.89.78c-3.28.64-7.84,1.45-12.88,2.24s-9.64,1.41-13,1.81l-3.94.45-1.07.1-.38,0,.37-.07,1.07-.15,3.93-.53c3.31-.45,7.89-1.1,12.94-1.89s9.6-1.58,12.89-2.16l3.9-.7,1.06-.18Z" style="fill:#263238"></path><path d="M368.39,468.64a8.72,8.72,0,0,0-1-1.75,8.53,8.53,0,0,0-1.57-1.29,3.52,3.52,0,0,1,2.59,3Z" style="fill:#263238"></path><path d="M374.24,464.43c-.05.05-.42-.28-.81-.72s-.66-.85-.61-.9.42.28.81.72S374.3,464.38,374.24,464.43Z" style="fill:#263238"></path><path d="M375.84,463.23c0,.06-.41-.11-.84-.38s-.73-.55-.69-.61.41.11.84.38S375.88,463.17,375.84,463.23Z" style="fill:#263238"></path><path d="M376.63,461a5,5,0,0,1-2.25.38c0-.08.48-.22,1.1-.32A2.55,2.55,0,0,1,376.63,461Z" style="fill:#263238"></path><path d="M376.78,459.54a2.19,2.19,0,0,1-1.2.56,2.22,2.22,0,0,1-1.32,0,6.33,6.33,0,0,1,1.26-.29A6.63,6.63,0,0,1,376.78,459.54Z" style="fill:#263238"></path><path d="M373.22,462.66a4,4,0,0,1-1.39.21,7.67,7.67,0,0,1-1.52-.1,4,4,0,0,1-.9-.21.79.79,0,0,1-.41-.38.55.55,0,0,1,.12-.58,2.58,2.58,0,0,1,3.85,1.1.82.82,0,0,1,.1.37,4.12,4.12,0,0,0-.82-1.08,2.57,2.57,0,0,0-1.3-.59,2.25,2.25,0,0,0-1.63.37c-.19.2-.07.45.2.55a3.37,3.37,0,0,0,.83.21,9.62,9.62,0,0,0,1.48.15C372.68,462.7,373.21,462.62,373.22,462.66Z" style="fill:#263238"></path><path d="M372.87,462.79a1.37,1.37,0,0,1-.31-.94,2.33,2.33,0,0,1,.22-1.07,1.41,1.41,0,0,1,1-.88.56.56,0,0,1,.53.57,1.6,1.6,0,0,1-.14.65,4.09,4.09,0,0,1-.52.94,2.15,2.15,0,0,1-.71.69s.24-.29.55-.79A4.64,4.64,0,0,0,374,461c.15-.33.19-.87-.16-.88s-.65.42-.82.73a2.29,2.29,0,0,0-.25,1A4.73,4.73,0,0,0,372.87,462.79Z" style="fill:#263238"></path><path d="M396,457.7c0,.05-.63,0-1.58.3a6.85,6.85,0,0,0-4.94,5.38c-.18,1-.12,1.6-.17,1.6a1.1,1.1,0,0,1-.07-.43,5.3,5.3,0,0,1,.06-1.2,6.66,6.66,0,0,1,1.68-3.55,6.74,6.74,0,0,1,3.39-2,5.77,5.77,0,0,1,1.19-.15A1.3,1.3,0,0,1,396,457.7Z" style="fill:#263238"></path><path d="M392.32,449.09a39.43,39.43,0,0,1,.88,4.39,38.36,38.36,0,0,1,.61,4.44,39.29,39.29,0,0,1-.87-4.4A37,37,0,0,1,392.32,449.09Z" style="fill:#263238"></path><path d="M386.21,463.43a17.45,17.45,0,0,1-6.28,1c0-.07,1.41-.21,3.14-.5S386.19,463.36,386.21,463.43Z" style="fill:#263238"></path><path d="M390.43,462.77c.06,0-.07.31-.16.66s-.13.64-.2.65-.17-.32-.06-.72S390.37,462.72,390.43,462.77Z" style="fill:#263238"></path><path d="M391.71,460.54c.06,0,0,.29-.23.55s-.39.44-.45.39.05-.28.23-.54S391.65,460.5,391.71,460.54Z" style="fill:#263238"></path><path d="M393.85,459.28c0,.08-.29.12-.59.28s-.5.36-.57.32.07-.36.44-.55S393.86,459.21,393.85,459.28Z" style="fill:#263238"></path><path d="M395.4,458.6c0,.06-.07.19-.24.29s-.33.13-.37.06.07-.19.24-.29S395.36,458.54,395.4,458.6Z" style="fill:#263238"></path><path d="M382.4,245.74c-.95,1.08-2.93.88-4.41-.43s-1.93-3.25-1-4.33,2.93-.89,4.42.43S383.36,244.66,382.4,245.74Z" style="fill:#fafafa"></path><path d="M352.41,242.66s11.38,18,13,24.87,32,188.77,32,188.77L369.54,458,331.68,280.06,346.91,456.7,319.49,459S297.69,272,299.63,267.07s7.06-22.26,7.06-22.26Z" style="fill:#455a64"></path><path d="M331.45,278.92s0,.15-.22.3a1,1,0,0,1-1.07-.1,2.45,2.45,0,0,1-.66-1.57l-.36-2.17c-.53-3.22-1.22-7.66-2-12.58s-1.37-9.37-1.81-12.6c-.19-1.54-.36-2.82-.48-3.82a6.54,6.54,0,0,1-.11-1.42,8.81,8.81,0,0,1,.31,1.39c.17,1,.39,2.27.65,3.8.53,3.21,1.22,7.66,2,12.58s1.37,9.37,1.8,12.59c.11.8.2,1.53.29,2.18a2.39,2.39,0,0,0,.5,1.47.86.86,0,0,0,.89.16C331.38,279,331.43,278.9,331.45,278.92Z" style="fill:#263238"></path><path d="M328.6,248.53s0-.16.27-.31a1.52,1.52,0,0,1,1.1-.16,1.48,1.48,0,0,1,1.17,1.2,1.77,1.77,0,0,1-.9,1.85,1.83,1.83,0,0,1-2-.34,1.69,1.69,0,0,1-.47-1.6c.24-1,.92-1.19.92-1.13a2.75,2.75,0,0,0-.56,1.19,1.33,1.33,0,0,0,.44,1.19,1.39,1.39,0,0,0,1.47.23,1.33,1.33,0,0,0,.66-1.31,1.14,1.14,0,0,0-.8-.93A1.94,1.94,0,0,0,328.6,248.53Z" style="fill:#263238"></path><path d="M352.73,129.71a15.53,15.53,0,0,0-14-17.39c-8.28-.79-15.64,5.37-16.88,13.6-1.09,7.21-2,14.49-2,17.13.1,8,4.76,11.07,6.65,12a10.58,10.58,0,0,0,2.1.52h0a0,0,0,0,1,0,.06l-1.77,9.15c-.8,6,2.55,11.34,8.53,12.22s10.7-3.73,11.62-9.73Z" style="fill:#936754"></path><path d="M323.73,129.87a1.28,1.28,0,0,0,1,1.45,1.22,1.22,0,0,0,1.45-.95,1.27,1.27,0,0,0-1-1.44A1.21,1.21,0,0,0,323.73,129.87Z" style="fill:#263238"></path><path d="M323.73,128.08c.13.19,1.18-.38,2.53-.18s2.24,1,2.41.88,0-.38-.42-.76a3.39,3.39,0,0,0-1.9-.9,3.34,3.34,0,0,0-2.05.34C323.84,127.72,323.66,128,323.73,128.08Z" style="fill:#263238"></path><path d="M336.5,132a1.27,1.27,0,0,0,1,1.44,1.2,1.2,0,0,0,1.45-.94,1.27,1.27,0,0,0-1-1.45A1.23,1.23,0,0,0,336.5,132Z" style="fill:#263238"></path><path d="M337,130.26c.13.19,1.19-.37,2.54-.17s2.23,1,2.41.87,0-.38-.42-.76a3.52,3.52,0,0,0-1.9-.9,3.32,3.32,0,0,0-2.05.35C337.07,129.91,336.89,130.18,337,130.26Z" style="fill:#263238"></path><path d="M330.6,139.56a8.7,8.7,0,0,0-2.14-.72c-.34-.08-.65-.2-.68-.44a1.88,1.88,0,0,1,.38-1l1.4-2.48c2-3.52,3.44-6.45,3.29-6.52a46.5,46.5,0,0,0-3.8,6.24c-.48.88-.93,1.71-1.37,2.5a2.07,2.07,0,0,0-.37,1.33.85.85,0,0,0,.49.58,2.18,2.18,0,0,0,.58.17A9.49,9.49,0,0,0,330.6,139.56Z" style="fill:#263238"></path><path d="M328.71,155.59s5.14,1.18,12.23-1.78c0,0-3.06,6.58-12.71,4.24Z" style="fill:#7c5142"></path><path d="M330.69,142.89a2.44,2.44,0,0,1,2.31-.58,2.25,2.25,0,0,1,1.42,1,1.44,1.44,0,0,1-.13,1.63,1.65,1.65,0,0,1-1.83.19,5.24,5.24,0,0,1-1.58-1.28,1.62,1.62,0,0,1-.33-.46.47.47,0,0,1,.08-.5" style="fill:#7c5142"></path><path d="M334.43,141.07c-.22,0-.43,1.42-1.84,2.28s-2.94.46-3,.67.31.33,1,.45a3.75,3.75,0,0,0,2.48-.48,3.23,3.23,0,0,0,1.45-1.92C334.64,141.46,334.53,141.08,334.43,141.07Z" style="fill:#263238"></path><path d="M336.69,127.81c.08.39,1.45.41,3,.83s2.77,1,3,.75c.11-.15-.06-.53-.52-1a5.38,5.38,0,0,0-4.6-1.19C337,127.39,336.66,127.63,336.69,127.81Z" style="fill:#263238"></path><path d="M324.62,125.39c.2.35,1.17.16,2.29.31s2,.51,2.3.22,0-.47-.36-.82a3.1,3.1,0,0,0-1.78-.77,3.14,3.14,0,0,0-1.91.35C324.72,124.93,324.54,125.23,324.62,125.39Z" style="fill:#263238"></path><path d="M366.18,170.64c-1.25-2.23-3.54-3.82-4.48-6.19-1.62-4.07,1.24-8.59,2-12.88.5-1.14.93-2.2,1.16-2.88.89-2.7.89-7-.39-9.52-1.19-2.36-4.2-4.7-5.07-7-1.35-3.52-.35-4.43-1.38-11.77-.59-4.17-6.14-9.94-12-9a11.86,11.86,0,0,0-7-3.7,16.67,16.67,0,0,0-16.94,7c-1.74,2.63-2.78,6.17-1.75,9.32,1.65,2.51,6.89,1,10.05-.77a7.51,7.51,0,0,0,10.26-2.13,3.57,3.57,0,0,0,2.52,1.36c.11.93.22,1.71.29,2.21.32,2.3,3.77,5.62,3.81,7.94.07,4.36-3.28,4.58-4.21,8.85-.7,3.21,1.74,5.09,2.2,8.34a5.31,5.31,0,0,1-.51,2.09c-1.35,2.64-2.48,5.43-2.21,8.34.25,2.75,1.74,5.28,1.88,8,.24,4.83-3.56,8.76-5.78,13a21.33,21.33,0,0,0-2.11,12.9A188.6,188.6,0,0,0,363.44,197a2,2,0,0,0,2.46-2.26q.66-7.41,1.31-14.8C367.49,176.8,367.73,173.41,366.18,170.64Z" style="fill:#263238"></path><path d="M298,259.91c-5.45,2.24-8.76,7.69-11.7,12.8L275.55,291.4c-1.42,2.48-2.89,5.16-2.66,8a9.46,9.46,0,0,0,4.18,6.64,24.74,24.74,0,0,0,7.38,3.23c3.21,1,6.53,1.86,9.87,1.55s6.74-2,8.22-5c1.24-2.52,1-5.48.69-8.28q-1.56-14.82-3.11-29.66c-.27-2.56-.53-5.12-.8-7.68" style="fill:#263238"></path><path d="M278.66,286.34a3.28,3.28,0,0,0,1,.8,3.34,3.34,0,0,0,3.28-.48c1.21-.88,2-2.55,3-4.32s2.08-3.71,3.21-5.75c2.29-4.08,4.39-7.75,5.93-10.4l1.85-3.12a6.3,6.3,0,0,1,.74-1.11,7.31,7.31,0,0,1-.56,1.21l-1.7,3.2c-1.46,2.69-3.51,6.4-5.8,10.47-1.15,2-2.24,4-3.25,5.74s-1.86,3.45-3.2,4.37a3.51,3.51,0,0,1-3.59.37,2.16,2.16,0,0,1-.76-.67A.88.88,0,0,1,278.66,286.34Z" style="fill:#455a64"></path><path d="M285.21,310.61c-.14,0,2.71-11.37,6.37-25.3s6.73-25.22,6.87-25.18-2.71,11.37-6.37,25.31S285.35,310.65,285.21,310.61Z" style="fill:#455a64"></path><path d="M278.48,286.67a2.57,2.57,0,1,1,.51-.92" style="fill:#1A3D8F"></path><path d="M357.39,173.77a4.31,4.31,0,0,1-.63.93l-2,2.51c-1.75,2.16-4.24,5.3-7.29,9.22s-6.61,8.62-10.48,13.91-8,11.21-12.18,17.51-8,12.41-11.43,18-6.36,10.72-8.78,15-4.36,7.84-5.68,10.29c-.66,1.18-1.17,2.12-1.55,2.79a4.75,4.75,0,0,1-.6.95,4.28,4.28,0,0,1,.42-1l1.37-2.89c1.21-2.5,3.05-6.08,5.4-10.45s5.25-9.54,8.6-15.19,7.19-11.78,11.38-18.1,8.38-12.2,12.28-17.49,7.54-10,10.67-13.81,5.72-6.94,7.56-9c.9-1,1.61-1.82,2.13-2.39A4.53,4.53,0,0,1,357.39,173.77Z" style="fill:#263238"></path></g><g id="freepik--character-1--inject-145"><path d="M122.46,127.16a6.4,6.4,0,0,0-11.73,3.16,17.17,17.17,0,0,1-.12,3.8,3.83,3.83,0,0,1-4,2.68,5.28,5.28,0,0,0,2.53,1.88.91.91,0,0,0-1.29.73,1.49,1.49,0,0,0,.91,1.4,4.12,4.12,0,0,0,1.75.26c2.88,0,6-.32,8.17-2.22,2.35-2,3-5.35,3.58-8.42" style="fill:#263238"></path><path d="M148.28,115c3-.17,5.8,1.65,7.87,3.84s3.68,4.8,5.84,6.91c1.6,1.57,3.55,2.92,4.52,5,1.55,3.23.25,7.4,2.2,10.4,1.1,1.69,3,2.68,4.18,4.35,1.42,2.09,1.31,4.83,1,7.33a6.6,6.6,0,0,1-5.32,6.83,50.85,50.85,0,0,1-30.54.65" style="fill:#263238"></path><path d="M127.56,135.19a15.53,15.53,0,0,1,14-17.39c8.28-.79,15.64,5.37,16.89,13.6,1.08,7.21,2,14.49,2,17.13-.1,8-4.76,11.07-6.65,12a10.58,10.58,0,0,1-2.1.52h0a0,0,0,0,0,0,.06l1.77,9.15c.8,6-2.55,11.34-8.53,12.22s-10.7-3.73-11.62-9.73Z" style="fill:#ffbe9d"></path><path d="M157,136.06c-.13.19-1.18-.38-2.53-.18s-2.24,1-2.41.88,0-.38.42-.76a3.39,3.39,0,0,1,1.9-.9,3.29,3.29,0,0,1,2,.34C156.91,135.7,157.1,136,157,136.06Z" style="fill:#263238"></path><path d="M145,138.66c-.14.19-1.19-.38-2.54-.18s-2.24,1-2.41.88,0-.38.42-.76a3.52,3.52,0,0,1,1.9-.9,3.41,3.41,0,0,1,2,.34C144.91,138.3,145.09,138.58,145,138.66Z" style="fill:#263238"></path><path d="M149.69,145a9.48,9.48,0,0,1,2.14-.72c.34-.08.65-.2.68-.44a1.88,1.88,0,0,0-.38-1l-1.4-2.48a46.05,46.05,0,0,1-3.29-6.52,45.67,45.67,0,0,1,3.81,6.25c.47.87.92,1.7,1.36,2.49A2.07,2.07,0,0,1,153,144a.85.85,0,0,1-.49.58,2.12,2.12,0,0,1-.57.17A9.59,9.59,0,0,1,149.69,145Z" style="fill:#263238"></path><path d="M151.59,161.07s-5.15,1.18-12.24-1.78c0,0,3.06,6.58,12.71,4.24Z" style="fill:#eb996e"></path><path d="M149.6,148.37a2.44,2.44,0,0,0-2.31-.58,2.29,2.29,0,0,0-1.42,1,1.44,1.44,0,0,0,.13,1.63,1.67,1.67,0,0,0,1.84.19,5.21,5.21,0,0,0,1.57-1.28,1.62,1.62,0,0,0,.33-.46.45.45,0,0,0-.08-.5" style="fill:#eb996e"></path><path d="M145.86,146.55c.22,0,.43,1.42,1.84,2.28s2.94.47,3,.67-.31.33-1,.45a3.76,3.76,0,0,1-2.48-.48,3.23,3.23,0,0,1-1.45-1.92C145.65,146.94,145.76,146.56,145.86,146.55Z" style="fill:#263238"></path><path d="M144.1,134.27c-.08.39-1.46.41-3,.83s-2.77,1-3,.74c-.12-.14.05-.52.52-1a5.15,5.15,0,0,1,2.16-1.13,5.24,5.24,0,0,1,2.44-.07C143.79,133.84,144.13,134.09,144.1,134.27Z" style="fill:#263238"></path><path d="M155.67,131.9c-.19.34-1.17.16-2.29.31s-2,.5-2.3.21c-.12-.14,0-.47.36-.82a3.34,3.34,0,0,1,3.69-.42C155.58,131.44,155.75,131.73,155.67,131.9Z" style="fill:#263238"></path><path d="M160,129.61c-1.65,2.52-6.88,1-10.05-.77a7.51,7.51,0,0,1-10.26-2.12c-1.81,2.3-5.49,1.54-6.83-1.06s-.58-6.17,1.26-8.44a11.78,11.78,0,0,1,7.19-3.91,16.68,16.68,0,0,1,16.94,7c1.74,2.63,2.78,6.17,1.75,9.32" style="fill:#263238"></path><path d="M134.56,117c-5.93-1.13-11.65,4.78-12.24,9-1,7.34,0,8.26-1.38,11.78-.88,2.29-3.89,4.63-5.08,7-1.28,2.53-1.28,6.82-.39,9.51.75,2.28,3.81,8.63,3.81,8.63s8.82-.29,13.33-1.44A7.51,7.51,0,0,0,135.8,160c.85-.78-.91-3.47-.75-4.61.46-3.26,2.9-5.14,2.2-8.35-.93-4.27-4.28-4.48-4.21-8.85,0-2.31,3.49-5.64,3.81-7.93S138.5,120,134.56,117" style="fill:#263238"></path><path d="M122.08,132.57c.15,0-.16-1.48-.13-3.25s.37-3.2.22-3.25a7.95,7.95,0,0,0-.09,6.5Z" style="fill:#1A3D8F"></path><path d="M122.26,130.08a1.49,1.49,0,0,0,.64.15,6.1,6.1,0,0,0,1.78-.1,6.83,6.83,0,0,0,2.47-1,7.36,7.36,0,0,0,2.25-2.35,14.94,14.94,0,0,1,1.84-2.52,7.45,7.45,0,0,1,2.06-1.44,17.29,17.29,0,0,1,2.24-.73,1.45,1.45,0,0,0-.66,0,6.49,6.49,0,0,0-1.73.43,7.09,7.09,0,0,0-2.25,1.42A13.23,13.23,0,0,0,129,126.5a7.22,7.22,0,0,1-4.37,3.27A20,20,0,0,1,122.26,130.08Z" style="fill:#455a64"></path><path d="M107.79,139.14a1.28,1.28,0,0,0,.76.25,3.28,3.28,0,0,0,2.11-.6,5.18,5.18,0,0,0,1.92-2.62c.43-1.15.63-2.47,1-3.77a5.52,5.52,0,0,1,1.94-3.08,4.24,4.24,0,0,1,2.88-.66,5.21,5.21,0,0,1,2.55,1.16s-.11-.28-.51-.62a4.15,4.15,0,0,0-2-.91,4.54,4.54,0,0,0-3.2.63,5.83,5.83,0,0,0-2.17,3.33c-.4,1.35-.58,2.65-1,3.75a5,5,0,0,1-1.67,2.49,3.38,3.38,0,0,1-1.89.7C108.07,139.19,107.8,139.1,107.79,139.14Z" style="fill:#455a64"></path><path d="M122.11,129.19s.26.08.73,0a3.67,3.67,0,0,0,1.7-1,7.5,7.5,0,0,0,1.54-2.5,16,16,0,0,1,1.46-3.13,7.17,7.17,0,0,1,5.19-3,12.29,12.29,0,0,1,2.59.14s-.21-.15-.66-.29a6.28,6.28,0,0,0-2-.22,7.21,7.21,0,0,0-5.59,3,15.57,15.57,0,0,0-1.48,3.24,7.65,7.65,0,0,1-1.36,2.42A4.16,4.16,0,0,1,122.11,129.19Z" style="fill:#455a64"></path><path d="M124.53,163.22s-.43-.49-1.18-1.39a19.77,19.77,0,0,1-2.62-4.17,13.94,13.94,0,0,1-1.28-7.08,11.19,11.19,0,0,1,3.9-7.68c1.22-1,2.62-1.73,3.8-2.73a7.28,7.28,0,0,0,2.47-3.68,22.12,22.12,0,0,0,.73-3.92,18,18,0,0,1,.68-3.33,5.79,5.79,0,0,1,3-3.63,5,5,0,0,1,1.74-.36,1.28,1.28,0,0,0-.47-.07,3.43,3.43,0,0,0-1.35.25,5.87,5.87,0,0,0-3.29,3.69,18.19,18.19,0,0,0-.75,3.39,24,24,0,0,1-.76,3.83,6.94,6.94,0,0,1-2.34,3.44c-1.14.95-2.53,1.69-3.81,2.72a11.55,11.55,0,0,0-4,8,14,14,0,0,0,1.43,7.27,17.46,17.46,0,0,0,2.8,4.15c.4.44.73.76,1,1S124.51,163.24,124.53,163.22Z" style="fill:#455a64"></path><path d="M167.65,159.38s.09-.1.22-.31a8.27,8.27,0,0,0,.5-1,10.41,10.41,0,0,0,.77-4,10.75,10.75,0,0,0-1.66-5.8,25,25,0,0,0-2.23-2.79,7.59,7.59,0,0,1-1.76-3.19c-.53-2.48.28-5,.11-7.27A12.18,12.18,0,0,0,162,129.2a9.89,9.89,0,0,0-2.76-3,7.14,7.14,0,0,0-.95-.58c-.22-.12-.35-.17-.35-.15s.44.3,1.17.89a10.35,10.35,0,0,1,2.57,3,12.13,12.13,0,0,1,1.46,5.65,23.82,23.82,0,0,1-.21,3.51,12,12,0,0,0,.07,3.87,8,8,0,0,0,1.88,3.39,27.46,27.46,0,0,1,2.22,2.73,10.67,10.67,0,0,1,1.69,5.55,10.94,10.94,0,0,1-.59,3.92C167.87,158.9,167.61,159.36,167.65,159.38Z" style="fill:#455a64"></path><path d="M142.55,114.21a26.5,26.5,0,0,1,3.82.22,13.9,13.9,0,0,1,7.92,4.26,17.26,17.26,0,0,1,3.81,8.25,22.17,22.17,0,0,1,.19,3.82,3.55,3.55,0,0,0,.22-1,12.07,12.07,0,0,0,0-2.85,16.62,16.62,0,0,0-3.78-8.54,13.66,13.66,0,0,0-8.25-4.28,12.06,12.06,0,0,0-2.86,0A3.23,3.23,0,0,0,142.55,114.21Z" style="fill:#455a64"></path><path d="M151.07,125.93a2.54,2.54,0,0,0,.13-.9,9.07,9.07,0,0,0-.26-2.46,10.13,10.13,0,0,0-12.71-7.49,9.24,9.24,0,0,0-2.28,1c-.49.31-.74.52-.72.55a18.27,18.27,0,0,1,3.09-1.16,10.1,10.1,0,0,1,12.26,7.23A18.71,18.71,0,0,1,151.07,125.93Z" style="fill:#455a64"></path><path d="M98.57,286.57c-.22.77-.47,1.68-.71,2.77a8.41,8.41,0,0,0-.12,2.83,12.9,12.9,0,0,0,.79,3.45c.49,1-.46,2-1.34,1.59s-2.3-3.1-2.42-6.61-3.45.9-4.7,2.48-5.32,6.3-6.11,6.3c-1.16,0-1.38-1.23-.1-2.78s4.79-6.48,3.92-7.1S80.71,297,80.71,297s-1,2-2.08,1.28c-1.85-1.23,5.4-9.4,6.11-10.16.49-.53-.43-1.23-.92-.64s-6,8.27-7.92,7c-1.45-.94,5.9-6.77,6.16-9s-5.13,5-6.48,4c-.5-.36-.83-.69,2.86-4.39,1.79-1.79,8.69-7.23,8.69-7.23l14-48.85h18.37Z" style="fill:#ffbe9d"></path><path d="M249.31,88.19c-1.4-.89-6.44,6.57-6.29,4.34s7.23-8.41,5.73-9.28c-1.95-1.14-7.09,6.76-7.57,7.4s-1.42,0-1-.59c.67-.79,7.53-9.3,5.62-10.43-1.06-.63-2,1.37-2,1.37s-5.83,8.43-6.72,7.86,2.37-5.64,3.59-7.27.92-2.84-.23-2.78c-.79,0-4.64,5-5.81,6.58s-4.29,6.2-4.58,2.7-1.83-6.08-2.73-6.49-1.8.7-1.26,1.65a12.65,12.65,0,0,1,1,3.41,8.46,8.46,0,0,1,0,2.84c-.18,1.09-.39,2-.58,2.79l-2.36,3.87S206.87,126.72,204,131.08s-24.38,22.57-24.38,22.57l1.7,24,35-31,21.47-45.25.53-1.12s6.63-5.75,8.33-7.63C250.17,88.85,249.83,88.53,249.31,88.19Z" style="fill:#ffbe9d"></path><path d="M174.8,192.25l26.93-28.05-10.67-23.13-36.79,26.25-.66-2L132.17,168v3.79l-.61.07s-20.4,3.71-24.5,19c-2.83,10.55-8.7,30.2-12,41.36l24.47,2.14,6.22-20.48s3.9,8.91,3.68,13.13-4.26,17.9-4.26,17.9l47.79,4.47-.71-40.32Z" style="fill:#1A3D8F"></path><path d="M172.86,196.27c0,.14-15,.26-33.42.26s-33.42-.12-33.42-.26,15-.27,33.42-.27S172.86,196.12,172.86,196.27Z" style="fill:#f5f5f5"></path><path d="M174.24,192.2c0,.15-15,.26-33.41.26s-33.42-.11-33.42-.26,15-.26,33.42-.26S174.24,192.06,174.24,192.2Z" style="fill:#f5f5f5"></path><path d="M90,433.09l-5.12,23.15-9.33,17.14a2.43,2.43,0,0,0,1.12,3.37h0a2.39,2.39,0,0,0,2.22-.1c4.34-2.5,20.27-11.81,20.55-13.53.32-2,7-24.06,7-24.06Z" style="fill:#1A3D8F"></path><path d="M76.64,476.75l23.15-15.18-.24,1a3.64,3.64,0,0,1-1.41,2.1c-1.88,1.36-7.16,5-19.21,12a2.42,2.42,0,0,1-2.29.08Z" style="fill:#fff;opacity:0.6000000000000001"></path><g style="opacity:0.6000000000000001"><path d="M96.89,453a1.47,1.47,0,0,0-.85,1.77,1.4,1.4,0,0,0,1.74.85,1.54,1.54,0,0,0,.89-1.87,1.46,1.46,0,0,0-1.91-.69" style="fill:#fff"></path></g><path d="M84.37,468a7.23,7.23,0,0,0-1.58-2.28,7.5,7.5,0,0,0-2.52-1.16c0-.06.33-.17.88-.11a3.7,3.7,0,0,1,2,.87,3.74,3.74,0,0,1,1.2,1.79C84.48,467.63,84.43,468,84.37,468Z" style="fill:#263238"></path><path d="M82,470.66c-.14.08-.69-.85-1.8-1.49a20.79,20.79,0,0,0-2.18-.84,2.71,2.71,0,0,1,2.44.39C81.7,469.45,82.11,470.63,82,470.66Z" style="fill:#263238"></path><path d="M88.4,464.78a25.81,25.81,0,0,0-2.62-2.49,24.07,24.07,0,0,0-3.22-1.63,5.28,5.28,0,0,1,3.52,1.21A5.42,5.42,0,0,1,88.4,464.78Z" style="fill:#263238"></path><path d="M90.54,457.87c-.09.12-1.24-.72-2.88-1.19s-3-.39-3.06-.54a6,6,0,0,1,5.94,1.73Z" style="fill:#263238"></path><path d="M92.22,451.11a12.42,12.42,0,0,0-3-1.31,12.1,12.1,0,0,0-3.24,0c0-.05.3-.28.9-.46a5.31,5.31,0,0,1,2.45-.06,5.12,5.12,0,0,1,2.21,1C92.06,450.73,92.26,451.07,92.22,451.11Z" style="fill:#263238"></path><path d="M89.61,448.52a2,2,0,0,1,.18-.88A6.27,6.27,0,0,1,91,445.53a2.8,2.8,0,0,1,1.47-1,1,1,0,0,1,1,.47,1.65,1.65,0,0,1,.11,1.13A3.43,3.43,0,0,1,90,448.5a4,4,0,0,1-3.31-2.95,1.43,1.43,0,0,1,.21-1.14,1,1,0,0,1,1.1-.25,3.38,3.38,0,0,1,1.32,1.16,6.88,6.88,0,0,1,1.13,2.18,2.09,2.09,0,0,1,.16.88A10.59,10.59,0,0,0,89,445.55a3.08,3.08,0,0,0-1.17-1,.52.52,0,0,0-.6.13,1,1,0,0,0-.1.76A3.55,3.55,0,0,0,90,448a3,3,0,0,0,3.15-2,1.16,1.16,0,0,0,0-.79.53.53,0,0,0-.56-.27,2.55,2.55,0,0,0-1.26.82A9.36,9.36,0,0,0,89.61,448.52Z" style="fill:#263238"></path><path d="M164.22,440.38l-1.39,18.5s18.34,7.62,18.42,11.06l-36-1.39,1-28.92Z" style="fill:#1A3D8F"></path><g style="opacity:0.6000000000000001"><path d="M151.77,456.89a1.46,1.46,0,0,0-1.08,1.63,1.41,1.41,0,0,0,1.61,1.09,1.55,1.55,0,0,0,1.14-1.74,1.47,1.47,0,0,0-1.81-.94" style="fill:#fff"></path></g><path d="M145.28,468.55l.21-2.91,34.41,2.42s1.58.76,1.35,1.88Z" style="fill:#fff;opacity:0.6000000000000001"></path><path d="M163.42,458.72c0,.17-.89.22-1.78.75s-1.37,1.25-1.53,1.18.14-1.09,1.22-1.71S163.47,458.56,163.42,458.72Z" style="fill:#263238"></path><path d="M167.13,460.42c0,.18-.73.44-1.36,1.16s-.83,1.5-1,1.49-.25-1,.54-1.89S167.14,460.26,167.13,460.42Z" style="fill:#263238"></path><path d="M169.1,465c-.16,0-.37-.85.12-1.8s1.32-1.29,1.39-1.14-.46.64-.85,1.42S169.28,465,169.1,465Z" style="fill:#263238"></path><path d="M163.27,454.47c-.08.15-.88-.12-1.87-.09s-1.78.31-1.87.16.68-.76,1.86-.77S163.36,454.33,163.27,454.47Z" style="fill:#263238"></path><polygon points="163.94 444.04 163.69 447.34 146.02 446.49 146.12 443.51 163.94 444.04" style="opacity:0.30000000000000004"></polygon><path d="M163.48,450.73a3.46,3.46,0,0,1-1.8-.08,8.15,8.15,0,0,1-1.86-.65,8.92,8.92,0,0,1-1-.59,2.28,2.28,0,0,1-.52-.45.77.77,0,0,1-.05-.94,1,1,0,0,1,.79-.37,2.59,2.59,0,0,1,.67.12,6.46,6.46,0,0,1,1.1.43,6.26,6.26,0,0,1,1.62,1.16c.81.8,1.07,1.47,1,1.5s-.47-.51-1.3-1.18a6.82,6.82,0,0,0-1.57-1,7.18,7.18,0,0,0-1-.36c-.38-.11-.7-.13-.8,0s0,.09,0,.2a1.82,1.82,0,0,0,.38.32,11.09,11.09,0,0,0,.94.59,9.82,9.82,0,0,0,1.71.73A11.57,11.57,0,0,1,163.48,450.73Z" style="fill:#263238"></path><path d="M163.24,451a2.88,2.88,0,0,1-.41-1.76,6,6,0,0,1,.33-2,5.79,5.79,0,0,1,.5-1.08,1.49,1.49,0,0,1,1.18-.86.83.83,0,0,1,.73.53,2.31,2.31,0,0,1,.16.67,4,4,0,0,1,0,1.21,4.09,4.09,0,0,1-.84,1.83c-.74.91-1.48,1.09-1.5,1s.57-.41,1.15-1.28a4.13,4.13,0,0,0,.63-1.67,3.68,3.68,0,0,0,0-1.05c0-.38-.17-.69-.32-.66s-.49.27-.65.57a6.13,6.13,0,0,0-.49.95,6.32,6.32,0,0,0-.41,1.79C163.18,450.28,163.34,451,163.24,451Z" style="fill:#263238"></path><path d="M127,238.06s-11.39,18-13,24.86c-1.47,6.17-26.37,140.25-31.53,168a5.68,5.68,0,0,0,4,6.47L109,444.16a5.67,5.67,0,0,0,7.19-4.25L143.92,310l-8.14,128.69a6.6,6.6,0,0,0,6.78,7l22.06-.68a6.61,6.61,0,0,0,6.38-6.18c1.91-31,10.54-172,8.8-176.4-1.94-5-7.05-22.26-7.05-22.26Z" style="fill:#263238"></path><path d="M118,433.57a8,8,0,0,1-1.38-.17c-.88-.14-2.15-.38-3.72-.7-3.12-.64-7.42-1.66-12.1-3S92,426.87,89,425.73c-1.49-.57-2.69-1.05-3.51-1.41a7.05,7.05,0,0,1-1.25-.59,6.65,6.65,0,0,1,1.33.4l3.56,1.25c3,1.05,7.19,2.44,11.85,3.8s8.94,2.43,12,3.16l3.68.86A6.22,6.22,0,0,1,118,433.57Z" style="fill:#455a64"></path><path d="M90.1,425.35a3.82,3.82,0,0,1-1.42-2.46,3.76,3.76,0,0,1,.18-2.83c.15,0,0,1.26.33,2.71S90.22,425.25,90.1,425.35Z" style="fill:#455a64"></path><path d="M92.87,420.56a4.72,4.72,0,0,1-.26,2.66,4.91,4.91,0,0,1-1.24,2.37,12,12,0,0,1,.74-2.52A13.64,13.64,0,0,1,92.87,420.56Z" style="fill:#455a64"></path><path d="M163.54,427.34a5.89,5.89,0,0,1,.64,2.35,6,6,0,0,1,.13,2.43,6,6,0,0,1-.65-2.35A5.66,5.66,0,0,1,163.54,427.34Z" style="fill:#455a64"></path><path d="M166.22,426.09a6.54,6.54,0,0,1,.23,2.52,6.34,6.34,0,0,1-.3,2.51,6.54,6.54,0,0,1-.23-2.52A6.34,6.34,0,0,1,166.22,426.09Z" style="fill:#455a64"></path><path d="M153.82,244.33a3.4,3.4,0,0,1,0,.7c0,.52-.05,1.19-.08,2-.07,1.76-.22,4.3-.45,7.44-.46,6.28-1.32,14.94-2.71,24.45s-3,18.06-4.32,24.22c-.64,3.08-1.18,5.57-1.58,7.28-.2.82-.35,1.47-.47,2a3.45,3.45,0,0,1-.2.68,5,5,0,0,1,.1-.71c.09-.5.22-1.17.37-2,.35-1.79.83-4.27,1.42-7.31,1.18-6.18,2.76-14.73,4.16-24.23s2.31-18.13,2.86-24.4c.26-3.09.47-5.61.62-7.42.07-.84.13-1.51.17-2A3.42,3.42,0,0,1,153.82,244.33Z" style="fill:#455a64"></path><path d="M173.9,245a1.57,1.57,0,0,1-.5.06l-1.44.07c-1.26.06-3.08.11-5.33.14-4.49.08-10.7.07-17.56-.12s-13.06-.53-17.54-.86c-2.24-.16-4-.31-5.3-.43l-1.44-.16a1.71,1.71,0,0,1-.5-.09,2.38,2.38,0,0,1,.5,0l1.45.05,5.31.27c4.49.23,10.69.52,17.54.71s13,.25,17.54.27l5.32,0,1.45,0A1.77,1.77,0,0,1,173.9,245Z" style="fill:#455a64"></path><path d="M157.64,244.09a10.13,10.13,0,0,1,0,1.7c0,1.18-.09,2.74-.16,4.63-.15,3.9-.39,9.3-.69,15.26-.16,3-.28,5.81-.48,8.41a16.29,16.29,0,0,1-1.75,6.67,8.67,8.67,0,0,1-3.2,3.38,5.61,5.61,0,0,1-1.16.51c-.28.08-.43.11-.43.09a15.44,15.44,0,0,0,1.49-.78,8.9,8.9,0,0,0,3-3.37,16.67,16.67,0,0,0,1.6-6.54c.17-2.57.27-5.42.43-8.4.3-6,.6-11.35.85-15.25.13-1.89.23-3.44.31-4.62A10.1,10.1,0,0,1,157.64,244.09Z" style="fill:#455a64"></path><path d="M131.93,255.18a4.19,4.19,0,0,1,0,1.16,16.44,16.44,0,0,1-.55,3.12,19.29,19.29,0,0,1-5.34,8.87,19.09,19.09,0,0,1-9.23,4.72,17.54,17.54,0,0,1-3.14.35,4.22,4.22,0,0,1-1.15-.08,42.08,42.08,0,0,0,4.22-.63A19.41,19.41,0,0,0,131,259.35,40.33,40.33,0,0,0,131.93,255.18Z" style="fill:#455a64"></path><path d="M179.65,274a2.59,2.59,0,0,1-.78-.2,12.38,12.38,0,0,1-2-.88,16.5,16.5,0,0,1-2.74-1.83,17.69,17.69,0,0,1-4.88-6.35,16,16,0,0,1-1.07-3.11,11.39,11.39,0,0,1-.33-2.19,2.22,2.22,0,0,1,0-.81c.09,0,.18,1.14.68,2.91a19.64,19.64,0,0,0,1.14,3,21.44,21.44,0,0,0,2.06,3.34,20.51,20.51,0,0,0,2.7,2.84,19.33,19.33,0,0,0,2.61,1.88C178.6,273.54,179.69,273.92,179.65,274Z" style="fill:#455a64"></path><path d="M139.61,258.46a3.68,3.68,0,0,1,0,.45c0,.32-.09.75-.17,1.31-.16,1.18-.39,2.87-.69,5-.6,4.37-1.54,10.69-2.77,18.49-2.46,15.59-6.21,37.08-11.06,60.67s-9.92,44.82-13.83,60.11c-2,7.65-3.58,13.83-4.75,18.08-.59,2.11-1,3.75-1.36,4.9-.15.54-.28,1-.36,1.27s-.15.43-.15.43l.09-.44c.08-.32.19-.74.32-1.29.29-1.15.72-2.8,1.26-4.92,1.11-4.27,2.69-10.46,4.59-18.12,3.82-15.31,8.81-36.54,13.68-60.13s8.65-45.05,11.2-60.62c1.28-7.79,2.28-14.1,2.94-18.46.34-2.16.61-3.85.79-5,.09-.56.17-1,.22-1.31S139.61,258.46,139.61,258.46Z" style="fill:#455a64"></path><path d="M157.9,433.44s0-.14,0-.43.05-.71.09-1.24c.09-1.11.23-2.72.4-4.77.37-4.17.91-10.15,1.57-17.54,1.32-14.8,3.39-35.24,5-57.87.77-11.31,1.3-22.11,1.52-31.93s.15-18.67,0-26.1-.57-13.43-.87-17.58c-.14-2.05-.26-3.66-.34-4.77,0-.53-.06-.94-.08-1.25a3.31,3.31,0,0,1,0-.42,2.29,2.29,0,0,1,.06.42c0,.3.08.71.13,1.24.11,1.11.26,2.72.45,4.76.35,4.15.74,10.15,1,17.59s.34,16.29.14,26.12-.71,20.64-1.48,32c-1.56,22.64-3.69,43.07-5.1,57.87-.73,7.38-1.32,13.36-1.74,17.52-.21,2.05-.38,3.65-.5,4.76-.06.53-.1.94-.14,1.24A1.75,1.75,0,0,1,157.9,433.44Z" style="fill:#455a64"></path><path d="M171.57,431.11c0,.14-7.91,1.13-17.7,2.21s-17.74,1.84-17.75,1.7,7.9-1.14,17.69-2.22S171.55,431,171.57,431.11Z" style="fill:#455a64"></path></g><g id="freepik--Plant--inject-145"><path d="M449.22,443.6a2.35,2.35,0,0,0-.18-.42l-.57-1.22a30.11,30.11,0,0,1-1.68-4.9c-1.12-4.35-1.51-11,.14-18.89a101.92,101.92,0,0,1,3.51-12.69c1.48-4.5,3.2-9.28,4.61-14.44a55.68,55.68,0,0,0,2.27-16.61c-.21-5.88-1.95-11.74-3.86-17.58s-3.88-11.56-4.48-17.31a26.38,26.38,0,0,1,3.18-16c2.53-4.67,5.72-8.66,8.1-12.79a44.46,44.46,0,0,0,4.87-12.29,45.91,45.91,0,0,0,.31-19.05,35.31,35.31,0,0,0-2-6.72,2.57,2.57,0,0,0,.12.44l.4,1.29a51.4,51.4,0,0,1,1.24,5,46.35,46.35,0,0,1-.5,18.9,44.31,44.31,0,0,1-4.88,12.13c-2.38,4.09-5.58,8.06-8.16,12.78a26.91,26.91,0,0,0-3.28,16.31c.6,5.85,2.59,11.6,4.49,17.44s3.63,11.64,3.85,17.41a55.46,55.46,0,0,1-2.22,16.44c-1.39,5.14-3.09,9.92-4.55,14.44a99.39,99.39,0,0,0-3.45,12.76c-1.6,8-1.15,14.67.05,19a28.39,28.39,0,0,0,1.8,4.89c.27.5.47.9.63,1.2A1.68,1.68,0,0,0,449.22,443.6Z" style="fill:#263238"></path><path d="M457,314.84s4.84-15.47-3.84-24.54a.53.53,0,0,0-.92.27C451.79,293.12,451.22,300.91,457,314.84Z" style="fill:#1A3D8F"></path><path d="M454.12,295.46a14.72,14.72,0,0,0,.33,2.86c.32,2,.69,4.27,1.1,6.82s.77,4.86,1.09,6.83a15.28,15.28,0,0,0,.51,2.83,11.86,11.86,0,0,0-.09-2.88c-.16-1.77-.47-4.2-.91-6.87s-.9-5.08-1.28-6.81A12.91,12.91,0,0,0,454.12,295.46Z" style="fill:#263238"></path><path d="M451.34,351.35s-3-15.94-14.88-19.89a.53.53,0,0,0-.69.66C436.56,334.6,439.69,341.75,451.34,351.35Z" style="fill:#1A3D8F"></path><path d="M439.71,335.58a13.57,13.57,0,0,0,1.62,2.37l4.17,5.52,4.15,5.52a15.36,15.36,0,0,0,1.77,2.26,11.56,11.56,0,0,0-1.42-2.5c-1-1.49-2.38-3.49-4-5.65s-3.17-4.06-4.31-5.42A13.12,13.12,0,0,0,439.71,335.58Z" style="fill:#263238"></path><path d="M454.55,391.36s1.8-16.12-8.45-23.36a.54.54,0,0,0-.85.44C445.28,371,446.2,378.79,454.55,391.36Z" style="fill:#1A3D8F"></path><path d="M448,372.88a14.17,14.17,0,0,0,.86,2.74l2.39,6.5c.89,2.42,1.69,4.62,2.37,6.49a15,15,0,0,0,1,2.68,11.71,11.71,0,0,0-.63-2.81c-.5-1.71-1.27-4-2.21-6.57s-1.85-4.81-2.56-6.44A13,13,0,0,0,448,372.88Z" style="fill:#263238"></path><path d="M445.58,431.6s1.22-16.17-9.29-23a.53.53,0,0,0-.83.46C435.58,411.62,436.78,419.33,445.58,431.6Z" style="fill:#1A3D8F"></path><path d="M438.38,413.37a13.87,13.87,0,0,0,1,2.71l2.62,6.4c1,2.39,1.85,4.56,2.59,6.41a16.37,16.37,0,0,0,1.14,2.63,11.73,11.73,0,0,0-.73-2.78c-.56-1.69-1.41-4-2.44-6.49s-2-4.74-2.79-6.34A13.15,13.15,0,0,0,438.38,413.37Z" style="fill:#263238"></path><path d="M464,301.24s14.38-7.5,14.66-20.05a.54.54,0,0,0-.84-.47C475.66,282.2,469.74,287.29,464,301.24Z" style="fill:#1A3D8F"></path><path d="M475.65,285.5a14.09,14.09,0,0,0-1.79,2.25l-4.05,5.6-4.07,5.59a16.13,16.13,0,0,0-1.64,2.36,11.78,11.78,0,0,0,2-2.09c1.14-1.37,2.64-3.31,4.22-5.5s3-4.23,3.91-5.72A13.14,13.14,0,0,0,475.65,285.5Z" style="fill:#263238"></path><path d="M448.54,334.49s14.81-6.62,15.85-19.13a.53.53,0,0,0-.81-.51C461.36,316.19,455.14,320.91,448.54,334.49Z" style="fill:#1A3D8F"></path><path d="M461.15,319.48a14,14,0,0,0-1.93,2.14L454.84,327l-4.4,5.34a15.42,15.42,0,0,0-1.78,2.25,11.45,11.45,0,0,0,2.1-2c1.22-1.29,2.84-3.13,4.55-5.23s3.2-4,4.25-5.47A12.74,12.74,0,0,0,461.15,319.48Z" style="fill:#263238"></path><path d="M457.06,371.57s10.17-12.64,5.4-24.25a.54.54,0,0,0-1-.09C460.14,349.44,456.75,356.48,457.06,371.57Z" style="fill:#1A3D8F"></path><path d="M461.45,352.47a14.46,14.46,0,0,0-.74,2.78c-.42,1.94-.92,4.23-1.47,6.75l-1.49,6.75a15.09,15.09,0,0,0-.55,2.82,12.24,12.24,0,0,0,1-2.71c.49-1.7,1.09-4.08,1.66-6.73s1-5.05,1.3-6.8A13.28,13.28,0,0,0,461.45,352.47Z" style="fill:#263238"></path><path d="M447,415.21s14.69-6.87,15.53-19.39a.54.54,0,0,0-.82-.5C459.5,396.7,453.36,401.52,447,415.21Z" style="fill:#1A3D8F"></path><path d="M459.34,400a15.18,15.18,0,0,0-1.88,2.17l-4.3,5.42-4.31,5.4a16.41,16.41,0,0,0-1.74,2.29,12.12,12.12,0,0,0,2.07-2c1.2-1.31,2.78-3.18,4.46-5.3s3.14-4.1,4.16-5.54A12.74,12.74,0,0,0,459.34,400Z" style="fill:#263238"></path><path d="M417.72,351.44a1.23,1.23,0,0,0,0,.36c0,.28,0,.62,0,1,0,1,.1,2.29.18,3.93.19,3.46.45,8.28.77,14v0c1.05,5.86,4,12.37,8.05,18.69,2.95,4.65,6,8.88,8.7,12.81A91,91,0,0,1,442,413.13,46.14,46.14,0,0,1,445,421c.25,1,.45,1.73.56,2.25a4.65,4.65,0,0,0,.21.78,3.27,3.27,0,0,0-.09-.81c-.07-.52-.23-1.29-.46-2.27a41.72,41.72,0,0,0-2.89-8,86.11,86.11,0,0,0-6.44-10.9c-2.64-4-5.71-8.2-8.64-12.83-4-6.28-7-12.69-8.06-18.46v0c-.4-5.76-.74-10.58-1-14-.13-1.64-.24-2.95-.32-3.92,0-.42-.07-.76-.1-1S417.74,351.44,417.72,351.44Z" style="fill:#263238"></path><path d="M426.47,388.33s-6.22-15,1.61-24.79a.53.53,0,0,1,.94.18C429.71,366.22,431,373.92,426.47,388.33Z" style="fill:#1A3D8F"></path><path d="M427.61,368.76a12.1,12.1,0,0,0-.5,2.83c-.22,1.76-.46,4.2-.66,6.9s-.28,5.15-.28,6.93a11.83,11.83,0,0,0,.17,2.87,15.47,15.47,0,0,0,.26-2.86c.13-2,.29-4.32.46-6.9s.34-4.91.48-6.9A14.78,14.78,0,0,0,427.61,368.76Z" style="fill:#263238"></path><g style="opacity:0.30000000000000004"><path d="M426.47,388.33s-6.22-15,1.61-24.79a.53.53,0,0,1,.94.18C429.71,366.22,431,373.92,426.47,388.33Z"></path></g><path d="M445.75,424.42s-5-15.43,3.61-24.58a.54.54,0,0,1,.92.26C450.77,402.65,451.42,410.43,445.75,424.42Z" style="fill:#1A3D8F"></path><path d="M448.46,405a13,13,0,0,0-.72,2.78c-.36,1.74-.8,4.15-1.22,6.82s-.7,5.12-.84,6.89a11.84,11.84,0,0,0-.06,2.87,15.24,15.24,0,0,0,.49-2.83c.29-2,.63-4.28,1-6.83l1-6.84A13.86,13.86,0,0,0,448.46,405Z" style="fill:#263238"></path><g style="opacity:0.30000000000000004"><path d="M445.75,424.42s-5-15.43,3.61-24.58a.54.54,0,0,1,.92.26C450.77,402.65,451.42,410.43,445.75,424.42Z"></path></g><path d="M418.55,370s-13.29-9.3-11.95-21.78a.54.54,0,0,1,.89-.35C409.42,349.63,414.64,355.44,418.55,370Z" style="fill:#1A3D8F"></path><g style="opacity:0.30000000000000004"><path d="M418.55,370s-13.29-9.3-11.95-21.78a.54.54,0,0,1,.89-.35C409.42,349.63,414.64,355.44,418.55,370Z"></path></g><path d="M409,352.9a12.38,12.38,0,0,0,1.1,2.66c.76,1.6,1.86,3.79,3.14,6.17s2.53,4.5,3.48,6a11.89,11.89,0,0,0,1.69,2.33,15.94,15.94,0,0,0-1.32-2.55c-1-1.75-2.08-3.8-3.31-6.07l-3.3-6.08A14.34,14.34,0,0,0,409,352.9Z" style="fill:#263238"></path><path d="M440.39,409.12s-16-2.5-20.32-14.29a.54.54,0,0,1,.65-.71C423.21,394.83,430.45,397.76,440.39,409.12Z" style="fill:#1A3D8F"></path><g style="opacity:0.30000000000000004"><path d="M440.39,409.12s-16-2.5-20.32-14.29a.54.54,0,0,1,.65-.71C423.21,394.83,430.45,397.76,440.39,409.12Z"></path></g><path d="M424.28,398a12.3,12.3,0,0,0,2.16,1.9c1.39,1.11,3.34,2.59,5.54,4.16s4.25,2.93,5.77,3.85a11.3,11.3,0,0,0,2.54,1.35A17.69,17.69,0,0,0,438,407.5c-1.63-1.14-3.54-2.49-5.64-4l-5.64-4A14.66,14.66,0,0,0,424.28,398Z" style="fill:#263238"></path><polygon points="459.35 438.61 454.75 468.76 436.4 468.73 430.21 438.61 459.35 438.61" style="fill:#455a64"></polygon><path d="M442.6,448.29a5.15,5.15,0,0,0,.85-2.52,2.75,2.75,0,0,0-1.25-2.59,3,3,0,0,0-3.07.25,4.46,4.46,0,0,0-1.76,2.77,12.64,12.64,0,0,0,.51,6.89,7.69,7.69,0,0,0,2.13,3,5.88,5.88,0,0,0,3.53,1.48,6.45,6.45,0,0,0,3.68-1.07,10.84,10.84,0,0,0,2.74-2.48,6,6,0,0,0,1.39-3.31,3.83,3.83,0,0,0-1.3-3.19,3,3,0,0,0-3.26-.2,3.46,3.46,0,0,0-1.87,2.46,4.7,4.7,0,0,0,2.32,4.77,6.48,6.48,0,0,0,4.43.64,10.31,10.31,0,0,0,3.16-1.23,18.53,18.53,0,0,0,1.76-1.2,3.91,3.91,0,0,0,.57-.48,3.37,3.37,0,0,0-.62.4c-.41.26-1,.67-1.81,1.1a10.19,10.19,0,0,1-3.11,1.13,6.21,6.21,0,0,1-4.2-.67,4.34,4.34,0,0,1-2.09-4.38,3,3,0,0,1,1.66-2.15,2.55,2.55,0,0,1,2.77.17,3.4,3.4,0,0,1,1.11,2.81,5.55,5.55,0,0,1-1.3,3,10.57,10.57,0,0,1-2.62,2.36,6,6,0,0,1-3.38,1,5.43,5.43,0,0,1-3.23-1.36,7.25,7.25,0,0,1-2-2.84,11,11,0,0,1-.72-3.33,11.37,11.37,0,0,1,.2-3.26,4,4,0,0,1,1.55-2.51,2.56,2.56,0,0,1,2.62-.26,2.34,2.34,0,0,1,1.07,2.22,4.81,4.81,0,0,1-.76,2.34,6.79,6.79,0,0,1-3.42,2.56,7.57,7.57,0,0,1-3.27.39,9.05,9.05,0,0,1-2.71-.8l.16.11a4.1,4.1,0,0,0,.48.27,6.59,6.59,0,0,0,2,.62,7.65,7.65,0,0,0,3.38-.32,7.1,7.1,0,0,0,3.63-2.64" style="fill:#263238"></path></g></svg>