<?xml version="1.0" encoding="UTF-8"?>
<svg id="Layer_2" data-name="Layer 2" xmlns="http://www.w3.org/2000/svg" xmlns:xlink="http://www.w3.org/1999/xlink" viewBox="0 0 250 250">
  <defs>
    <style>
      .cls-1 {
        fill: #ffbb7d;
      }

      .cls-2 {
        fill: url(#linear-gradient);
      }

      .cls-3 {
        fill: #c37700;
        opacity: .32;
      }

      .cls-4 {
        fill: #ffefdc;
      }
    </style>
    <linearGradient id="linear-gradient" x1="125" y1="0" x2="125" y2="250" gradientUnits="userSpaceOnUse">
      <stop offset="0" stop-color="#ffb53f"/>
      <stop offset="1" stop-color="#bf6a00"/>
    </linearGradient>
  </defs>
  <g>
    <rect class="cls-4" y="0" width="250" height="250" rx="17.72" ry="17.72"/>
    <path class="cls-2" d="M232.28,5c7.01,0,12.72,5.7,12.72,12.72v214.57c0,7.01-5.71,12.72-12.72,12.72H17.72c-7.01,0-12.72-5.71-12.72-12.72V17.72c0-7.01,5.7-12.72,12.72-12.72h214.57M232.28,0H17.72C7.93,0,0,7.93,0,17.72v214.57c0,9.79,7.93,17.72,17.72,17.72h214.57c9.79,0,17.72-7.93,17.72-17.72V17.72c0-9.79-7.93-17.72-17.72-17.72h0Z"/>
  </g>
  <g>
    <path class="cls-1" d="M215.78,63.48h-114.33c-3.13,0-5.66-2.54-5.66-5.66s2.54-5.66,5.66-5.66h114.33c3.13,0,5.66,2.54,5.66,5.66s-2.54,5.66-5.66,5.66Z"/>
    <path class="cls-1" d="M58.49,41.81l3.56,10.96h11.52c1.79,0,2.53,2.29,1.08,3.34l-9.32,6.77,3.56,10.96c.55,1.7-1.39,3.11-2.84,2.06l-9.32-6.77-9.32,6.77c-1.45,1.05-3.39-.36-2.84-2.06l3.56-10.96-9.32-6.77c-1.45-1.05-.7-3.34,1.08-3.34h11.52s3.56-10.96,3.56-10.96c.55-1.7,2.96-1.7,3.51,0Z"/>
  </g>
  <g>
    <path class="cls-1" d="M215.78,124.26h-114.33c-3.13,0-5.66-2.54-5.66-5.66s2.54-5.66,5.66-5.66h114.33c3.13,0,5.66,2.54,5.66,5.66s-2.54,5.66-5.66,5.66Z"/>
    <path class="cls-1" d="M58.49,102.58l3.56,10.96h11.52c1.79,0,2.53,2.29,1.08,3.34l-9.32,6.77,3.56,10.96c.55,1.7-1.39,3.11-2.84,2.06l-9.32-6.77-9.32,6.77c-1.45,1.05-3.39-.36-2.84-2.06l3.56-10.96-9.32-6.77c-1.45-1.05-.7-3.34,1.08-3.34h11.52s3.56-10.96,3.56-10.96c.55-1.7,2.96-1.7,3.51,0Z"/>
  </g>
  <g>
    <path class="cls-1" d="M215.78,185.03h-114.33c-3.13,0-5.66-2.54-5.66-5.66s2.54-5.66,5.66-5.66h114.33c3.13,0,5.66,2.54,5.66,5.66s-2.54,5.66-5.66,5.66Z"/>
    <path class="cls-1" d="M58.49,163.35l3.56,10.96h11.52c1.79,0,2.53,2.29,1.08,3.34l-9.32,6.77,3.56,10.96c.55,1.7-1.39,3.11-2.84,2.06l-9.32-6.77-9.32,6.77c-1.45,1.05-3.39-.36-2.84-2.06l3.56-10.96-9.32-6.77c-1.45-1.05-.7-3.34,1.08-3.34h11.52s3.56-10.96,3.56-10.96c.55-1.7,2.96-1.7,3.51,0Z"/>
  </g>
  <path class="cls-3" d="M250,20.08v209.86c0,11.08-8.98,20.06-20.07,20.06h-104.93V0h104.93c11.09,0,20.07,8.98,20.07,20.07Z"/>
</svg>