<?xml version="1.0" encoding="UTF-8"?>
<svg id="Layer_1" data-name="Layer 1" xmlns="http://www.w3.org/2000/svg" viewBox="0 0 250 250">
  <defs>
    <style>
      .cls-1 {
        fill: #fdefe6;
      }

      .cls-2 {
        fill: #00cb9d;
      }

      .cls-3 {
        fill: #fff;
      }

      .cls-4 {
        fill: #204491;
      }
    </style>
  </defs>
  <g>
    <path class="cls-1" d="M245,64.35v39.86c-3.14-13.91-14.88-24.89-29.87-26.37L44.08,60.96c-18.72-1.84-35.41,11.85-37.24,30.57l-1.84,18.63v-45.81C5,31.56,31.56,5,64.35,5h121.29c32.79,0,59.35,26.56,59.35,59.35Z"/>
    <path class="cls-2" d="M245,104.21v56.24l-1-10.01c-.22-2.17-.61-4.28-1.2-6.31-4.73-16.97-21.11-28.59-39.27-26.78l-165.24,16.52c-19.05,1.89-33.29,17.97-33.29,36.71v-60.41l1.84-18.63c1.84-18.72,18.52-32.4,37.24-30.57l171.05,16.88c14.99,1.47,26.73,12.46,29.87,26.37Z"/>
    <path class="cls-4" d="M244,150.44c-.22-2.17-.61-4.28-1.2-6.31-4.73-16.97-21.11-28.59-39.27-26.78l-165.24,16.52c-19.05,1.89-33.29,17.97-33.29,36.71v15.07c0,6.79,1.14,13.29,3.25,19.39,8.01,23.25,30.09,39.97,56.1,39.97h121.29c20.97,0,39.38-10.88,49.9-27.26,6.01-9.26,9.46-20.28,9.46-32.1v-25.2l-1-10.01Z"/>
  </g>
  <path class="cls-3" d="M63.63,216.6l-27.14-26.64c-2.74-2.69-2.78-7.09-.09-9.83,2.69-2.74,7.09-2.78,9.83-.09l17.19,16.88,34.65-35.49c2.69-2.75,7.09-2.8,9.83-.12,2.75,2.68,2.8,7.09.12,9.83l-44.39,45.47Z"/>
</svg>