<?xml version="1.0" encoding="UTF-8"?>
<svg id="Layer_1" data-name="Layer 1" xmlns="http://www.w3.org/2000/svg" viewBox="0 0 512 512">
  <defs>
    <style>
      .cls-1 {
        fill: #fdefe6;
      }

      .cls-2 {
        fill: #00cb9d;
      }

      .cls-3 {
        fill: #fff;
      }

      .cls-4 {
        fill: #204491;
      }
    </style>
  </defs>
  <rect class="cls-3" width="512" height="512" rx="27.23" ry="27.23"/>
  <g>
    <g>
      <path class="cls-4" d="M45.05,464.53h-15.89v-10.62c0-3.09-.17-5.02-.51-5.78-.34-.77-1.09-1.15-2.25-1.15-1.31,0-2.14.47-2.49,1.4-.35.93-.53,2.94-.53,6.04v28.39c0,2.97.18,4.91.53,5.81.35.91,1.14,1.36,2.38,1.36s1.96-.45,2.32-1.36c.37-.91.55-3.04.55-6.4v-7.68h15.89v2.38c0,6.32-.45,10.81-1.34,13.46-.89,2.65-2.87,4.97-5.93,6.96-3.06,1.99-6.83,2.99-11.31,2.99s-8.49-.84-11.51-2.53c-3.02-1.69-5.02-4.02-6-7-.98-2.98-1.47-7.47-1.47-13.46v-17.86c0-4.4.15-7.71.45-9.91.3-2.2,1.2-4.32,2.7-6.36,1.5-2.04,3.57-3.64,6.23-4.82,2.66-1.17,5.71-1.75,9.15-1.75,4.68,0,8.54.9,11.59,2.71,3.05,1.81,5.05,4.07,6,6.77.96,2.7,1.43,6.91,1.43,12.61v5.8Z"/>
      <path class="cls-4" d="M84.8,466.53v12.27c0,4.5-.23,7.81-.68,9.91s-1.42,4.06-2.91,5.89-3.39,3.17-5.72,4.04c-2.33.87-5,1.3-8.02,1.3-3.37,0-6.23-.37-8.57-1.11-2.34-.74-4.16-1.86-5.45-3.36-1.3-1.49-2.22-3.31-2.77-5.44-.55-2.13-.83-5.32-.83-9.57v-12.84c0-4.65.5-8.29,1.51-10.91,1.01-2.62,2.82-4.72,5.44-6.31,2.62-1.58,5.96-2.38,10.04-2.38,3.42,0,6.36.51,8.81,1.53,2.45,1.02,4.35,2.35,5.68,3.98,1.33,1.64,2.25,3.32,2.74,5.06.49,1.74.74,4.38.74,7.93ZM69.55,462.76c0-2.57-.14-4.18-.42-4.85-.28-.67-.87-1-1.77-1s-1.51.33-1.81,1c-.3.67-.45,2.28-.45,4.85v22.61c0,2.37.15,3.91.45,4.63.3.72.89,1.08,1.77,1.08s1.5-.33,1.79-.98c.29-.66.43-2.06.43-4.23v-23.1Z"/>
      <path class="cls-4" d="M105.34,448.94l-.26,4.61c1.11-1.84,2.46-3.22,4.06-4.14,1.6-.92,3.44-1.38,5.53-1.38,2.62,0,4.76.62,6.42,1.85,1.66,1.23,2.73,2.79,3.21,4.66.48,1.88.72,5,.72,9.38v35.11h-15.25v-34.69c0-3.45-.11-5.55-.34-6.3-.23-.76-.86-1.13-1.89-1.13s-1.76.43-2.04,1.3c-.28.87-.42,3.19-.42,6.96v33.86h-15.25v-50.09h15.52Z"/>
      <path class="cls-4" d="M145.77,448.94l-.26,4.61c1.11-1.84,2.46-3.22,4.06-4.14,1.6-.92,3.44-1.38,5.53-1.38,2.62,0,4.76.62,6.42,1.85,1.66,1.23,2.73,2.79,3.21,4.66s.72,5,.72,9.38v35.11h-15.25v-34.69c0-3.45-.11-5.55-.34-6.3-.23-.76-.86-1.13-1.89-1.13s-1.76.43-2.04,1.3c-.28.87-.42,3.19-.42,6.96v33.86h-15.25v-50.09h15.52Z"/>
      <path class="cls-4" d="M205.23,474.88h-19.74v10.83c0,2.26.16,3.72.49,4.38.33.65.96.98,1.89.98,1.16,0,1.93-.43,2.32-1.3.39-.87.58-2.55.58-5.04v-6.61h14.46v3.7c0,3.1-.19,5.47-.58,7.14-.39,1.66-1.3,3.43-2.74,5.32-1.43,1.89-3.25,3.3-5.45,4.25-2.2.94-4.96,1.41-8.29,1.41s-6.06-.46-8.53-1.39c-2.47-.93-4.39-2.21-5.76-3.83-1.37-1.62-2.32-3.41-2.85-5.36-.53-1.95-.79-4.79-.79-8.51v-14.61c0-4.38.59-7.83,1.77-10.36,1.18-2.53,3.12-4.47,5.81-5.81,2.69-1.34,5.79-2.02,9.29-2.02,4.28,0,7.81.81,10.59,2.44,2.78,1.62,4.73,3.77,5.85,6.46,1.12,2.68,1.68,6.45,1.68,11.31v6.64ZM189.94,466.72v-3.66c0-2.59-.14-4.27-.42-5.02-.28-.76-.84-1.13-1.7-1.13-1.06,0-1.71.32-1.96.96-.25.64-.38,2.37-.38,5.19v3.66h4.45Z"/>
      <path class="cls-4" d="M243.92,467.86h-14.38v-5.78c0-2.01-.16-3.38-.49-4.1-.33-.72-.93-1.08-1.81-1.08s-1.47.31-1.77.94c-.3.63-.45,2.04-.45,4.23v23.63c0,1.79.23,3.13.68,4.02.45.89,1.12,1.34,2,1.34,1.03,0,1.73-.47,2.1-1.4s.55-2.69.55-5.29v-5.96h13.59c-.03,4-.17,7-.43,9s-1.11,4.05-2.53,6.15c-1.42,2.1-3.28,3.69-5.57,4.76-2.29,1.07-5.12,1.6-8.49,1.6-4.3,0-7.71-.74-10.23-2.21-2.52-1.47-4.3-3.54-5.34-6.19-1.04-2.66-1.57-6.42-1.57-11.31v-14.23c0-4.25.43-7.46,1.28-9.63.86-2.16,2.68-4.1,5.47-5.8,2.79-1.7,6.19-2.55,10.19-2.55s7.37.84,10.19,2.53c2.82,1.69,4.69,3.81,5.62,6.38.93,2.56,1.4,6.2,1.4,10.91Z"/>
      <path class="cls-4" d="M264.53,442.26v7.89h4.11v7.93h-4.11v26.8c0,3.3.17,5.13.51,5.51s1.76.57,4.25.57v8.08h-6.15c-3.47,0-5.95-.14-7.44-.43-1.49-.29-2.8-.96-3.93-2-1.13-1.04-1.84-2.24-2.11-3.59-.28-1.34-.42-4.51-.42-9.49v-25.45h-3.28v-7.93h3.28v-7.89h15.29Z"/>
      <path class="cls-4" d="M321.5,437.92v61.12h-13.89l-.02-41.26-5.53,41.26h-9.85l-5.83-40.32-.02,40.32h-13.89v-61.12h20.57c.61,3.67,1.24,8.01,1.89,12.99l2.26,15.55,3.65-28.54h20.68Z"/>
      <path class="cls-4" d="M359.35,448.94l-4.36,36.24c-.69,5.74-1.27,9.65-1.73,11.74-.46,2.09-1.24,3.82-2.32,5.17-1.08,1.36-2.59,2.36-4.51,3-1.93.64-5,.96-9.23.96h-9.25v-8c2.37,0,3.9-.12,4.58-.36s1.02-.78,1.02-1.6c0-.4-.31-2.15-.94-5.25l-8.35-41.9h13.84l5.01,33.82,2.45-33.82h13.8Z"/>
      <path class="cls-2" d="M394.55,437.92v12.23h-9.44v48.89h-15.89v-48.89h-9.4v-12.23h34.73Z"/>
      <path class="cls-2" d="M408.1,468.34h-14.31v-3.36c0-3.87.44-6.86,1.34-8.96.89-2.1,2.69-3.96,5.38-5.57,2.69-1.61,6.19-2.42,10.5-2.42,5.16,0,9.04.91,11.66,2.74,2.62,1.83,4.19,4.07,4.72,6.72.53,2.65.79,8.12.79,16.4v25.14h-14.84v-4.46c-.93,1.79-2.13,3.13-3.61,4.03-1.47.89-3.23,1.34-5.27,1.34-2.67,0-5.12-.75-7.34-2.25-2.23-1.5-3.34-4.78-3.34-9.83v-4.12c0-3.75.59-6.31,1.77-7.66,1.18-1.36,4.12-2.94,8.8-4.75,5.01-1.96,7.69-3.28,8.04-3.97.35-.68.53-2.06.53-4.15,0-2.62-.19-4.32-.58-5.12-.39-.79-1.04-1.19-1.95-1.19-1.03,0-1.67.33-1.93,1-.25.67-.38,2.4-.38,5.19v5.25ZM412.93,475.22c-2.44,1.79-3.86,3.28-4.25,4.49-.39,1.21-.59,2.94-.59,5.21,0,2.59.17,4.27.51,5.02s1.01,1.13,2.02,1.13c.96,0,1.58-.3,1.87-.89.29-.59.43-2.15.43-4.66v-10.31Z"/>
      <path class="cls-2" d="M464.57,464.95h-13.52v-2.72c0-2.32-.13-3.78-.39-4.4s-.93-.93-1.98-.93c-.86,0-1.5.28-1.93.85-.43.56-.64,1.41-.64,2.55,0,1.53.11,2.66.32,3.38.21.72.86,1.5,1.93,2.36,1.07.86,3.27,2.1,6.59,3.74,4.43,2.16,7.34,4.2,8.72,6.11,1.38,1.91,2.08,4.7,2.08,8.34,0,4.08-.53,7.15-1.58,9.23-1.06,2.08-2.83,3.68-5.3,4.8-2.48,1.12-5.47,1.68-8.97,1.68-3.87,0-7.19-.6-9.95-1.81-2.76-1.21-4.65-2.84-5.68-4.91-1.03-2.06-1.55-5.19-1.55-9.36v-2.42h13.52v3.17c0,2.69.17,4.44.51,5.25s1.01,1.21,2.02,1.21c1.08,0,1.84-.27,2.26-.81s.64-1.68.64-3.42c0-2.39-.28-3.89-.83-4.49-.58-.61-3.54-2.39-8.87-5.36-4.48-2.51-7.21-4.8-8.19-6.85-.98-2.05-1.47-4.49-1.47-7.31,0-4,.53-6.95,1.58-8.85,1.06-1.9,2.85-3.37,5.38-4.4,2.53-1.03,5.47-1.55,8.81-1.55s6.15.42,8.48,1.27c2.33.84,4.12,1.96,5.36,3.34,1.25,1.38,2,2.67,2.26,3.85.27,1.18.4,3.03.4,5.55v2.91Z"/>
      <path class="cls-2" d="M502.66,448.94l-6.19,19.95,8.04,30.14h-14.67l-4.76-21.83-.02,21.83h-15.25v-61.12h15.25l.02,25.66,4.76-14.63h12.82Z"/>
    </g>
    <g>
      <g>
        <path class="cls-1" d="M459.87,106.68v67.65c-5.33-23.6-25.26-42.25-50.7-44.75l-290.32-28.65c-31.77-3.12-60.09,20.11-63.21,51.88l-3.12,31.63v-77.75c0-55.66,45.08-100.74,100.74-100.74h205.87c55.66,0,100.74,45.08,100.74,100.74Z"/>
        <path class="cls-2" d="M459.87,174.33v95.45l-1.7-16.99c-.38-3.68-1.04-7.27-2.03-10.72-8.02-28.8-35.83-48.53-66.66-45.46l-280.46,28.04c-32.34,3.21-56.51,30.5-56.51,62.31v-102.53l3.12-31.63c3.12-31.77,31.44-55,63.21-51.88l290.32,28.65c25.44,2.5,45.37,21.15,50.7,44.75Z"/>
        <path class="cls-4" d="M458.17,252.79c-.38-3.68-1.04-7.27-2.03-10.72-8.02-28.8-35.83-48.53-66.66-45.46l-280.46,28.04c-32.34,3.21-56.51,30.5-56.51,62.31v25.59c0,11.52,1.94,22.57,5.52,32.9,13.6,39.47,51.08,67.84,95.22,67.84h205.87c35.59,0,66.85-18.46,84.69-46.26,10.2-15.72,16.05-34.41,16.05-54.48v-42.77l-1.7-16.99Z"/>
      </g>
      <path class="cls-3" d="M152.03,365.09l-46.07-45.22c-4.65-4.57-4.72-12.04-.16-16.69,4.56-4.65,12.04-4.72,16.69-.15l29.18,28.64,58.81-60.24c4.56-4.66,12.03-4.75,16.69-.2,4.67,4.55,4.75,12.03.2,16.69l-75.34,77.17Z"/>
    </g>
  </g>
</svg>