<?xml version="1.0" encoding="UTF-8"?>
<svg id="Layer_1" data-name="Layer 1" xmlns="http://www.w3.org/2000/svg" viewBox="0 0 794.74 127.16">
  <defs>
    <style>
      .cls-1 {
        fill: #fdefe6;
      }

      .cls-2 {
        fill: #00cb9d;
      }

      .cls-3 {
        fill: #fff;
      }

      .cls-4 {
        fill: #204491;
      }
    </style>
  </defs>
  <g>
    <path class="cls-4" d="M191.21,58.25h-20.47v-13.69c0-3.98-.22-6.46-.66-7.45-.44-.99-1.4-1.48-2.89-1.48-1.69,0-2.76.6-3.21,1.8-.45,1.2-.68,3.79-.68,7.78v36.57c0,3.82.23,6.32.68,7.49.45,1.17,1.47,1.75,3.06,1.75s2.52-.58,2.99-1.75c.47-1.17.71-3.92.71-8.24v-9.9h20.47v3.07c0,8.15-.58,13.93-1.73,17.34-1.15,3.41-3.7,6.4-7.64,8.96-3.94,2.57-8.8,3.85-14.57,3.85s-10.94-1.08-14.83-3.26c-3.89-2.17-6.47-5.18-7.73-9.02s-1.9-9.62-1.9-17.34v-23c0-5.67.2-9.93.58-12.77.39-2.84,1.55-5.57,3.48-8.19,1.93-2.63,4.6-4.69,8.02-6.2,3.42-1.51,7.35-2.26,11.79-2.26,6.03,0,11.01,1.16,14.93,3.5,3.92,2.33,6.5,5.24,7.73,8.72,1.23,3.48,1.85,8.9,1.85,16.25v7.48Z"/>
    <path class="cls-4" d="M242.42,60.83v15.81c0,5.8-.29,10.06-.88,12.77s-1.83,5.23-3.74,7.59-4.37,4.08-7.37,5.21c-3,1.12-6.44,1.68-10.33,1.68-4.35,0-8.02-.48-11.04-1.43-3.01-.96-5.36-2.4-7.03-4.33-1.67-1.93-2.86-4.26-3.57-7-.71-2.74-1.07-6.85-1.07-12.33v-16.54c0-6,.65-10.68,1.95-14.05,1.3-3.37,3.63-6.08,7-8.12,3.37-2.04,7.68-3.06,12.94-3.06,4.41,0,8.19.66,11.36,1.97,3.16,1.31,5.6,3.02,7.32,5.13,1.72,2.11,2.89,4.28,3.52,6.52.63,2.24.95,5.64.95,10.21ZM222.77,55.97c0-3.31-.18-5.39-.54-6.25-.36-.86-1.12-1.29-2.29-1.29s-1.94.43-2.33,1.29c-.39.86-.58,2.94-.58,6.25v29.13c0,3.05.2,5.03.58,5.96.39.92,1.15,1.39,2.29,1.39s1.94-.42,2.31-1.26c.37-.84.56-2.66.56-5.45v-29.76Z"/>
    <path class="cls-4" d="M268.88,38.17l-.34,5.94c1.43-2.37,3.17-4.15,5.23-5.33,2.06-1.18,4.43-1.78,7.13-1.78,3.37,0,6.13.79,8.27,2.38,2.14,1.59,3.52,3.59,4.13,6.01s.92,6.44.92,12.09v45.23h-19.65v-44.69c0-4.44-.14-7.15-.44-8.12-.29-.97-1.1-1.46-2.43-1.46s-2.27.56-2.63,1.68c-.36,1.12-.54,4.11-.54,8.97v43.62h-19.65V38.17h19.99Z"/>
    <path class="cls-4" d="M320.96,38.17l-.34,5.94c1.43-2.37,3.17-4.15,5.23-5.33,2.06-1.18,4.43-1.78,7.13-1.78,3.37,0,6.13.79,8.27,2.38,2.14,1.59,3.52,3.59,4.13,6.01s.92,6.44.92,12.09v45.23h-19.65v-44.69c0-4.44-.14-7.15-.44-8.12-.29-.97-1.1-1.46-2.43-1.46s-2.27.56-2.63,1.68c-.36,1.12-.54,4.11-.54,8.97v43.62h-19.65V38.17h19.99Z"/>
    <path class="cls-4" d="M397.56,71.58h-25.43v13.96c0,2.92.21,4.8.63,5.64.42.84,1.23,1.26,2.43,1.26,1.49,0,2.49-.56,2.99-1.68.5-1.12.75-3.28.75-6.49v-8.51h18.63v4.76c0,3.99-.25,7.05-.75,9.19-.5,2.14-1.68,4.42-3.53,6.86-1.85,2.43-4.19,4.26-7.03,5.47-2.84,1.21-6.4,1.82-10.67,1.82s-7.81-.6-10.99-1.8c-3.18-1.2-5.65-2.85-7.42-4.94-1.77-2.09-2.99-4.39-3.67-6.91-.68-2.51-1.02-6.17-1.02-10.97v-18.82c0-5.64.76-10.09,2.29-13.35,1.52-3.26,4.02-5.75,7.49-7.49,3.47-1.73,7.46-2.6,11.96-2.6,5.51,0,10.06,1.05,13.64,3.14,3.58,2.09,6.09,4.86,7.54,8.32,1.44,3.45,2.16,8.31,2.16,14.57v8.56ZM377.86,61.08v-4.72c0-3.34-.18-5.5-.54-6.47-.36-.97-1.09-1.46-2.19-1.46-1.36,0-2.21.41-2.53,1.24-.32.83-.49,3.06-.49,6.69v4.72h5.74Z"/>
    <path class="cls-4" d="M447.41,62.54h-18.53v-7.44c0-2.59-.21-4.35-.63-5.28-.42-.92-1.2-1.39-2.33-1.39s-1.9.4-2.29,1.22c-.39.81-.58,2.62-.58,5.44v30.45c0,2.3.29,4.03.88,5.18.58,1.15,1.44,1.73,2.58,1.73,1.33,0,2.23-.6,2.7-1.8s.71-3.47.71-6.81v-7.68h17.51c-.03,5.15-.22,9.02-.56,11.6s-1.43,5.22-3.26,7.93c-1.83,2.71-4.22,4.75-7.17,6.13-2.95,1.38-6.6,2.07-10.94,2.07-5.55,0-9.94-.95-13.18-2.84-3.24-1.9-5.54-4.56-6.88-7.98-1.35-3.42-2.02-8.28-2.02-14.57v-18.34c0-5.48.55-9.61,1.65-12.4,1.1-2.79,3.45-5.28,7.05-7.47,3.6-2.19,7.98-3.28,13.13-3.28s9.5,1.09,13.13,3.26c3.63,2.17,6.05,4.91,7.25,8.22,1.2,3.3,1.8,7.99,1.8,14.05Z"/>
    <path class="cls-4" d="M473.96,29.56v10.16h5.3v10.21h-5.3v34.53c0,4.25.22,6.61.66,7.1.44.49,2.26.73,5.47.73v10.41h-7.93c-4.47,0-7.67-.19-9.58-.56-1.92-.37-3.6-1.23-5.06-2.58-1.46-1.35-2.37-2.89-2.72-4.62-.36-1.73-.54-5.81-.54-12.23v-32.78h-4.23v-10.21h4.23v-10.16h19.7Z"/>
    <path class="cls-4" d="M547.35,23.97v78.73h-17.9l-.03-53.16-7.12,53.16h-12.69l-7.51-51.94-.02,51.94h-17.9V23.97h26.49c.78,4.73,1.6,10.31,2.43,16.74l2.91,20.03,4.7-36.76h26.64Z"/>
    <path class="cls-4" d="M596.12,38.17l-5.61,46.69c-.89,7.39-1.63,12.43-2.23,15.12-.6,2.69-1.6,4.92-2.99,6.67-1.4,1.75-3.33,3.04-5.81,3.87-2.48.83-6.44,1.24-11.89,1.24h-11.91v-10.31c3.05,0,5.02-.15,5.9-.46.88-.31,1.31-1,1.31-2.07,0-.52-.4-2.77-1.22-6.76l-10.76-53.98h17.83l6.46,43.57,3.15-43.57h17.77Z"/>
    <path class="cls-2" d="M641.46,23.97v15.75h-12.16v62.98h-20.47v-62.98h-12.11v-15.75h44.74Z"/>
    <path class="cls-2" d="M658.91,63.17h-18.43v-4.33c0-4.99.57-8.84,1.73-11.55,1.15-2.71,3.46-5.1,6.93-7.17,3.47-2.08,7.98-3.11,13.52-3.11,6.64,0,11.65,1.18,15.02,3.53,3.37,2.35,5.4,5.24,6.08,8.66.68,3.42,1.02,10.46,1.02,21.13v32.39h-19.11v-5.75c-1.2,2.31-2.75,4.03-4.65,5.19-1.89,1.15-4.16,1.73-6.78,1.73-3.44,0-6.59-.96-9.46-2.89-2.87-1.93-4.3-6.15-4.3-12.67v-5.3c0-4.83.76-8.12,2.28-9.87,1.52-1.75,5.3-3.79,11.33-6.13,6.45-2.53,9.9-4.23,10.36-5.11.45-.87.68-2.66.68-5.35,0-3.37-.25-5.57-.75-6.59-.5-1.02-1.34-1.53-2.51-1.53-1.33,0-2.16.43-2.48,1.29-.32.86-.49,3.09-.49,6.69v6.76ZM665.14,72.02c-3.14,2.3-4.97,4.23-5.47,5.79-.5,1.55-.76,3.79-.76,6.71,0,3.34.22,5.5.66,6.47.44.97,1.3,1.46,2.6,1.46,1.23,0,2.03-.38,2.41-1.15.37-.76.56-2.76.56-6v-13.28Z"/>
    <path class="cls-2" d="M731.67,58.79h-17.41v-3.5c0-2.99-.17-4.87-.51-5.67s-1.19-1.19-2.55-1.19c-1.1,0-1.93.37-2.48,1.1-.55.73-.83,1.82-.83,3.28,0,1.98.14,3.43.41,4.35.28.92,1.1,1.94,2.48,3.04,1.38,1.1,4.21,2.71,8.49,4.81,5.71,2.79,9.45,5.41,11.23,7.88,1.78,2.47,2.67,6.05,2.67,10.75,0,5.25-.68,9.21-2.04,11.89-1.36,2.68-3.64,4.74-6.83,6.18-3.19,1.44-7.05,2.16-11.55,2.16-4.99,0-9.26-.78-12.81-2.33-3.55-1.56-5.99-3.66-7.32-6.32-1.33-2.66-1.99-6.68-1.99-12.06v-3.11h17.41v4.09c0,3.47.22,5.72.66,6.76.44,1.04,1.3,1.56,2.6,1.56,1.39,0,2.37-.35,2.92-1.05s.83-2.17.83-4.4c0-3.08-.36-5.01-1.07-5.78-.74-.78-4.56-3.08-11.43-6.91-5.77-3.24-9.29-6.18-10.55-8.82-1.26-2.64-1.89-5.78-1.89-9.41,0-5.15.68-8.96,2.04-11.41,1.36-2.45,3.67-4.34,6.93-5.67,3.26-1.33,7.05-1.99,11.36-1.99s7.92.54,10.92,1.63c3,1.08,5.3,2.52,6.91,4.3,1.61,1.78,2.58,3.44,2.92,4.96.34,1.52.51,3.91.51,7.15v3.74Z"/>
    <path class="cls-2" d="M780.74,38.17l-7.98,25.7,10.36,38.83h-18.89l-6.13-28.13-.02,28.13h-19.65V23.97h19.65l.02,33.05,6.13-18.85h16.51Z"/>
  </g>
  <g>
    <g>
      <path class="cls-1" d="M119.83,36.24v17.97c-1.42-6.27-6.71-11.22-13.47-11.89l-77.12-7.61c-8.44-.83-15.96,5.34-16.79,13.78l-.83,8.4v-20.65c0-14.78,11.98-26.76,26.76-26.76h54.69c14.78,0,26.76,11.98,26.76,26.76Z"/>
      <path class="cls-2" d="M119.83,54.21v25.36l-.45-4.51c-.1-.98-.28-1.93-.54-2.85-2.13-7.65-9.52-12.89-17.71-12.08l-74.5,7.45c-8.59.85-15.01,8.1-15.01,16.55v-27.24l.83-8.4c.83-8.44,8.35-14.61,16.79-13.78l77.12,7.61c6.76.66,12.05,5.62,13.47,11.89Z"/>
      <path class="cls-4" d="M119.37,75.05c-.1-.98-.28-1.93-.54-2.85-2.13-7.65-9.52-12.89-17.71-12.08l-74.5,7.45c-8.59.85-15.01,8.1-15.01,16.55v6.8c0,3.06.51,5.99,1.47,8.74,3.61,10.48,13.57,18.02,25.29,18.02h54.69c9.46,0,17.76-4.9,22.5-12.29,2.71-4.18,4.26-9.14,4.26-14.47v-11.36l-.45-4.51Z"/>
    </g>
    <path class="cls-3" d="M38.05,104.88l-12.24-12.01c-1.24-1.21-1.25-3.2-.04-4.43,1.21-1.23,3.2-1.25,4.43-.04l7.75,7.61,15.62-16c1.21-1.24,3.19-1.26,4.43-.05,1.24,1.21,1.26,3.19.05,4.43l-20.01,20.5Z"/>
  </g>
</svg>