<?xml version="1.0" encoding="UTF-8"?>
<svg id="Layer_2" data-name="Layer 2" xmlns="http://www.w3.org/2000/svg" xmlns:xlink="http://www.w3.org/1999/xlink" viewBox="0 0 250 250">
  <defs>
    <style>
      .cls-1 {
        fill: url(#linear-gradient-8);
      }

      .cls-2 {
        fill: url(#linear-gradient-7);
      }

      .cls-3 {
        fill: url(#linear-gradient-5);
      }

      .cls-4 {
        fill: url(#linear-gradient-6);
      }

      .cls-5 {
        fill: url(#linear-gradient-4);
      }

      .cls-6 {
        fill: url(#linear-gradient-3);
      }

      .cls-7 {
        fill: url(#linear-gradient-2);
      }

      .cls-8 {
        fill: url(#linear-gradient);
      }

      .cls-9 {
        fill: #aac4ce;
        opacity: .32;
      }
    </style>
    <linearGradient id="linear-gradient" x1="0" y1="125" x2="250" y2="125" gradientUnits="userSpaceOnUse">
      <stop offset="0" stop-color="#8aa7ad"/>
      <stop offset="1" stop-color="#5c6b70"/>
    </linearGradient>
    <linearGradient id="linear-gradient-2" x1="125" y1="0" x2="125" y2="250" gradientUnits="userSpaceOnUse">
      <stop offset="0" stop-color="#555f70"/>
      <stop offset="1" stop-color="#aabde8"/>
    </linearGradient>
    <linearGradient id="linear-gradient-3" x1="95.79" y1="57.82" x2="221.44" y2="57.82" gradientUnits="userSpaceOnUse">
      <stop offset="0" stop-color="#ffc515"/>
      <stop offset="1" stop-color="#ff8b6a"/>
    </linearGradient>
    <linearGradient id="linear-gradient-4" x1="38.05" y1="58.39" x2="75.42" y2="58.39" xlink:href="#linear-gradient-3"/>
    <linearGradient id="linear-gradient-5" y1="118.59" y2="118.59" xlink:href="#linear-gradient-3"/>
    <linearGradient id="linear-gradient-6" x1="38.05" y1="119.17" x2="75.42" y2="119.17" xlink:href="#linear-gradient-3"/>
    <linearGradient id="linear-gradient-7" y1="179.37" y2="179.37" xlink:href="#linear-gradient-3"/>
    <linearGradient id="linear-gradient-8" x1="38.05" y1="179.94" x2="75.42" y2="179.94" xlink:href="#linear-gradient-3"/>
  </defs>
  <g>
    <rect class="cls-8" y="0" width="250" height="250" rx="17.72" ry="17.72"/>
    <path class="cls-7" d="M232.28,5c7.01,0,12.72,5.7,12.72,12.72v214.57c0,7.01-5.71,12.72-12.72,12.72H17.72c-7.01,0-12.72-5.71-12.72-12.72V17.72c0-7.01,5.7-12.72,12.72-12.72h214.57M232.28,0H17.72C7.93,0,0,7.93,0,17.72v214.57C0,242.07,7.93,250,17.72,250h214.57c9.79,0,17.72-7.93,17.72-17.72V17.72C250,7.93,242.07,0,232.28,0h0Z"/>
  </g>
  <g>
    <path class="cls-6" d="M215.78,63.48h-114.33c-3.13,0-5.66-2.54-5.66-5.66s2.54-5.66,5.66-5.66h114.33c3.13,0,5.66,2.54,5.66,5.66s-2.54,5.66-5.66,5.66Z"/>
    <path class="cls-5" d="M58.49,41.81l3.56,10.96h11.52c1.79,0,2.53,2.29,1.08,3.34l-9.32,6.77,3.56,10.96c.55,1.7-1.39,3.11-2.84,2.06l-9.32-6.77-9.32,6.77c-1.45,1.05-3.39-.36-2.84-2.06l3.56-10.96-9.32-6.77c-1.45-1.05-.7-3.34,1.08-3.34h11.52s3.56-10.96,3.56-10.96c.55-1.7,2.96-1.7,3.51,0Z"/>
  </g>
  <g>
    <path class="cls-3" d="M215.78,124.26h-114.33c-3.13,0-5.66-2.54-5.66-5.66s2.54-5.66,5.66-5.66h114.33c3.13,0,5.66,2.54,5.66,5.66s-2.54,5.66-5.66,5.66Z"/>
    <path class="cls-4" d="M58.49,102.58l3.56,10.96h11.52c1.79,0,2.53,2.29,1.08,3.34l-9.32,6.77,3.56,10.96c.55,1.7-1.39,3.11-2.84,2.06l-9.32-6.77-9.32,6.77c-1.45,1.05-3.39-.36-2.84-2.06l3.56-10.96-9.32-6.77c-1.45-1.05-.7-3.34,1.08-3.34h11.52s3.56-10.96,3.56-10.96c.55-1.7,2.96-1.7,3.51,0Z"/>
  </g>
  <g>
    <path class="cls-2" d="M215.78,185.03h-114.33c-3.13,0-5.66-2.54-5.66-5.66s2.54-5.66,5.66-5.66h114.33c3.13,0,5.66,2.54,5.66,5.66s-2.54,5.66-5.66,5.66Z"/>
    <path class="cls-1" d="M58.49,163.35l3.56,10.96h11.52c1.79,0,2.53,2.29,1.08,3.34l-9.32,6.77,3.56,10.96c.55,1.7-1.39,3.11-2.84,2.06l-9.32-6.77-9.32,6.77c-1.45,1.05-3.39-.36-2.84-2.06l3.56-10.96-9.32-6.77c-1.45-1.05-.7-3.34,1.08-3.34h11.52s3.56-10.96,3.56-10.96c.55-1.7,2.96-1.7,3.51,0Z"/>
  </g>
  <path class="cls-9" d="M250,20.08v209.86c0,11.08-8.98,20.06-20.07,20.06h-104.93V0h104.93c11.09,0,20.07,8.98,20.07,20.07Z"/>
</svg>